<svg width="9" height="13" viewBox="0 0 9 13" fill="none" xmlns="http://www.w3.org/2000/svg">
<path d="M4.29538 0.248779C2.69658 0.248779 1.39679 1.54857 1.39679 3.14737C1.39679 4.71565 2.62335 5.98493 4.22215 6.03985C4.27097 6.03375 4.31979 6.03375 4.3564 6.03985C4.3686 6.03985 4.37471 6.03985 4.38691 6.03985C4.39301 6.03985 4.39301 6.03985 4.39912 6.03985C5.9613 5.98493 7.18786 4.71565 7.19396 3.14737C7.19396 1.54857 5.89418 0.248779 4.29538 0.248779Z" fill="black"/>
<path d="M7.39589 7.66304C5.69335 6.52801 2.91683 6.52801 1.20209 7.66304C0.427099 8.18173 -6.10352e-05 8.88349 -6.10352e-05 9.63408C-6.10352e-05 10.3847 0.427099 11.0803 1.19599 11.5929C2.05031 12.1665 3.1731 12.4533 4.29593 12.4533C5.41875 12.4533 6.54157 12.1665 7.39589 11.5929C8.16478 11.0742 8.59194 10.3786 8.59194 9.62187C8.58583 8.87129 8.16478 8.17563 7.39589 7.66304Z" fill="black"/>
</svg>
