<svg width="15" height="21" viewBox="0 0 15 21" fill="none" xmlns="http://www.w3.org/2000/svg">
<path d="M7.37273 9.29464C7.27922 9.28528 7.16701 9.28528 7.06414 9.29464C4.83857 9.21983 3.07117 7.39631 3.07117 5.15199C3.07117 2.86092 4.92273 1 7.22311 1C9.51419 1 11.3751 2.86092 11.3751 5.15199C11.3658 7.39631 9.59835 9.21983 7.37273 9.29464Z" stroke="black" stroke-width="1.4027" stroke-linecap="round" stroke-linejoin="round"/>
<path d="M2.69727 12.7453C0.434244 14.2602 0.434244 16.7289 2.69727 18.2345C5.26889 19.9551 9.48634 19.9551 12.058 18.2345C14.321 16.7196 14.321 14.2508 12.058 12.7453C9.49569 11.034 5.27824 11.034 2.69727 12.7453Z" stroke="black" stroke-width="1.4027" stroke-linecap="round" stroke-linejoin="round"/>
</svg>
