<svg width="60" height="60" viewBox="0 0 60 60" fill="none" xmlns="http://www.w3.org/2000/svg">
<path d="M35.6597 39.8438L31.4895 35.7085C29.4773 33.7127 28.471 32.715 27.3165 32.3502C26.301 32.0295 25.2095 32.0412 24.2012 32.384C23.0547 32.7737 22.0703 33.793 20.1017 35.8315L10.1102 45.7002M35.6597 39.8438L36.5132 38.9975C38.528 36.9995 39.5353 36.0005 40.6913 35.6358C41.7078 35.315 42.8 35.3277 43.809 35.6717C44.956 36.0627 45.9403 37.0847 47.9085 39.1285L50 41.2335M35.6597 39.8438L45.6875 49.8912M10.1102 45.7002C10.1878 46.3302 10.3199 46.8283 10.545 47.27C11.0243 48.2108 11.7892 48.9757 12.7301 49.455C13.7996 50 15.1997 50 18 50H42C43.6357 50 44.794 50 45.6875 49.8912M10.1102 45.7002C10 44.8052 10 43.6437 10 42V18C10 15.1997 10 13.7996 10.545 12.7301C11.0243 11.7892 11.7892 11.0243 12.7301 10.545C13.7996 10 15.1997 10 18 10H42C44.8002 10 46.2005 10 47.27 10.545C48.2108 11.0243 48.9757 11.7892 49.455 12.7301C50 13.7996 50 15.1997 50 18V41.2335M50 41.2335V42C50 44.8002 50 46.2005 49.455 47.27C48.9757 48.2108 48.2108 48.9757 47.27 49.455C46.8253 49.6817 46.3232 49.814 45.6875 49.8912M42.5 22.4997C42.5 25.2613 40.2615 27.4997 37.5 27.4997C34.7385 27.4997 32.5 25.2613 32.5 22.4997C32.5 19.7383 34.7385 17.4997 37.5 17.4997C40.2615 17.4997 42.5 19.7383 42.5 22.4997Z" stroke="#828282" stroke-width="3" stroke-linecap="round" stroke-linejoin="round"/>
</svg>
