<svg width="20" height="18" viewBox="0 0 20 18" fill="none" xmlns="http://www.w3.org/2000/svg">
<path fill-rule="evenodd" clip-rule="evenodd" d="M6 1C6 0.44772 6.41328 0 6.92308 0H13.0769C13.5867 0 14 0.44772 14 1C14 1.55228 13.5867 2 13.0769 2H6.92308C6.41328 2 6 1.55228 6 1Z" fill="black"/>
<path fill-rule="evenodd" clip-rule="evenodd" d="M7.77778 18H12.2222C15.3433 18 16.9038 18 18.0248 17.2777C18.51 16.965 18.9267 16.5632 19.251 16.0953C20 15.0143 20 13.5095 20 10.4999C20 7.4903 19.9998 5.9857 19.2508 4.90473C18.9266 4.43676 18.5099 4.03497 18.0246 3.72228C16.9036 3 15.3431 3 12.2221 3H7.77761C4.65659 3 3.09607 3 1.97508 3.72228C1.48979 4.03497 1.07312 4.43676 0.74886 4.90473C-1.19209e-07 5.98547 0 7.4896 0 10.4979V10.4999C0 13.5095 1.19209e-07 15.0143 0.74902 16.0953C1.07328 16.5632 1.48995 16.965 1.97524 17.2777C3.09624 18 4.65675 18 7.77778 18ZM5.83333 10.4999C5.83333 8.2808 7.69881 6.48196 10 6.48196C12.3012 6.48196 14.1667 8.2808 14.1667 10.4999C14.1667 12.7189 12.3012 14.5178 10 14.5178C7.69881 14.5178 5.83333 12.7189 5.83333 10.4999ZM7.5 10.4999C7.5 9.1685 8.6193 8.0891 10 8.0891C11.3807 8.0891 12.5 9.1685 12.5 10.4999C12.5 11.8313 11.3807 12.9106 10 12.9106C8.6193 12.9106 7.5 11.8313 7.5 10.4999ZM16.1111 6.48196C15.6509 6.48196 15.2778 6.84174 15.2778 7.2855C15.2778 7.7294 15.6509 8.0891 16.1111 8.0891H16.6667C17.1269 8.0891 17.5 7.7294 17.5 7.2855C17.5 6.84174 17.1269 6.48196 16.6667 6.48196H16.1111Z" fill="black"/>
</svg>
