<svg width="50" height="50" viewBox="0 0 50 50" fill="none" xmlns="http://www.w3.org/2000/svg">
<circle cx="25" cy="25" r="25" fill="white"/>
<path d="M29.0429 24.4857C29.0429 26.4503 27.4503 28.0429 25.4857 28.0429C23.5211 28.0429 21.9286 26.4503 21.9286 24.4857M16 19.7429H34.9714H16ZM16 19.7429V26.8571C16 34.4063 17.3375 35.75 25.4857 35.75C33.6339 35.75 34.9714 34.4063 34.9714 26.8571V19.7429M16 19.7429L17.716 16.3109C18.1177 15.5075 18.9388 15 19.8371 15H31.1343C32.0326 15 32.8537 15.5075 33.2555 16.3109L34.9714 19.7429" fill="white"/>
<path d="M29.0429 24.4857C29.0429 26.4503 27.4503 28.0429 25.4857 28.0429C23.5211 28.0429 21.9286 26.4503 21.9286 24.4857M16 19.7429H34.9714M16 19.7429V26.8571C16 34.4063 17.3375 35.75 25.4857 35.75C33.6339 35.75 34.9714 34.4063 34.9714 26.8571V19.7429M16 19.7429L17.716 16.3109C18.1177 15.5075 18.9388 15 19.8371 15H31.1343C32.0326 15 32.8537 15.5075 33.2555 16.3109L34.9714 19.7429" stroke="black" stroke-width="1.5" stroke-linecap="round" stroke-linejoin="round"/>
</svg>
