<svg width="126" height="125" viewBox="0 0 126 125" fill="none" xmlns="http://www.w3.org/2000/svg">
<rect x="0.776001" width="124.776" height="124.776" rx="22.6865" fill="#FFF112"/>
<path d="M61.509 64.0435L53.2613 72.3197M47.1825 86.4178L55.259 78.3699C55.5265 78.1046 55.7388 77.7889 55.8837 77.4412C56.0286 77.0934 56.1032 76.7204 56.1032 76.3436C56.1032 75.9669 56.0286 75.5939 55.8837 75.2461C55.7388 74.8983 55.5265 74.5827 55.259 74.3174L51.235 70.2934C50.9697 70.0259 50.6541 69.8136 50.3063 69.6687C49.9585 69.5239 49.5855 69.4493 49.2088 69.4493C48.832 69.4493 48.459 69.5239 48.1112 69.6687C47.7635 69.8136 47.4478 70.0259 47.1825 70.2934L39.1346 78.3699C38.0716 79.4393 37.4749 80.8859 37.4749 82.3938C37.4749 83.9017 38.0716 85.3484 39.1346 86.4178C40.204 87.4809 41.6507 88.0776 43.1586 88.0776C44.6665 88.0776 46.1131 87.4809 47.1825 86.4178ZM52.4337 55.0252C51.9059 54.4868 51.6127 53.7613 51.618 53.0074C51.6234 52.2534 51.9268 51.5322 52.4622 51.0013C57.6848 45.9214 72.2395 33.8781 88.2497 37.3027C91.6744 53.3129 79.631 67.8676 74.5511 73.0902C74.2854 73.362 73.9679 73.578 73.6175 73.7255C73.2671 73.8729 72.8908 73.9489 72.5106 73.9489C72.1305 73.9489 71.7541 73.8729 71.4037 73.7255C71.0533 73.578 70.7359 73.362 70.4701 73.0902L52.4337 55.0252Z" stroke="black" stroke-width="3.66988" stroke-linecap="round" stroke-linejoin="round"/>
</svg>
