<svg width="24" height="24" viewBox="0 0 24 24" fill="none" xmlns="http://www.w3.org/2000/svg">
<path d="M23.7459 11.1563H23.7457L23.746 11.1661C23.7981 12.4995 23.3338 13.8016 22.4495 14.8021C21.5674 15.7999 20.3353 16.4211 19.0078 16.5373H14.9792C14.4346 16.5373 13.9125 16.7534 13.5274 17.1379C13.1422 17.5226 12.9258 18.0443 12.9258 18.5884C12.9258 19.1324 13.1422 19.6541 13.5274 20.0387C13.9115 20.4223 14.45 20.65 14.9959 20.65C15.4077 20.65 15.7996 20.8124 16.091 21.1034C16.3822 21.3943 16.5459 21.7888 16.5459 22.2H16.5458L16.5459 22.2059C16.5551 22.5923 16.416 22.9677 16.1569 23.2552L16.3426 23.4226L16.1569 23.2552C15.8917 23.5496 15.5248 23.7413 15.1596 23.7413H13.7769V23.7412L13.7709 23.7413C12.1797 23.7794 10.5886 23.6566 9.02207 23.3747C6.94169 22.8272 5.05128 21.7207 3.55629 20.1755L3.37662 20.3494L3.55629 20.1755C2.05904 18.628 1.01583 16.6999 0.540285 14.6011C0.0647439 12.5023 0.175103 10.3135 0.859345 8.27311C1.54358 6.23267 2.77548 4.41888 4.42082 3.02939C6.06617 1.63991 8.06185 0.728049 10.1904 0.393202C12.319 0.0583549 14.4987 0.31338 16.4921 1.13047L16.5869 0.899152L16.4921 1.13047C18.4856 1.94757 20.2162 3.29536 21.4953 5.02697L21.6964 4.87843L21.4953 5.02698C22.7724 6.75558 23.5506 8.80046 23.7459 10.9395V11.1563ZM12.5959 6.24125C13.728 6.24125 14.6459 5.32344 14.6459 4.19125C14.6459 3.05907 13.728 2.14126 12.5959 2.14126C11.4637 2.14126 10.5458 3.05906 10.5458 4.19125C10.5458 5.32345 11.4637 6.24125 12.5959 6.24125ZM6.59585 8.64125C7.72803 8.64125 8.64584 7.72344 8.64584 6.59125C8.64584 5.45906 7.72803 4.54125 6.59585 4.54125C5.46367 4.54125 4.54585 5.45906 4.54585 6.59125C4.54585 7.72344 5.46367 8.64125 6.59585 8.64125ZM5.39585 14.6413C6.52804 14.6413 7.44584 13.7234 7.44584 12.5913C7.44584 11.4591 6.52804 10.5412 5.39585 10.5412C4.26367 10.5412 3.34585 11.4591 3.34585 12.5913C3.34585 13.7234 4.26367 14.6413 5.39585 14.6413ZM17.3959 9.84125C18.528 9.84125 19.4459 8.92344 19.4459 7.79125C19.4459 6.65906 18.528 5.74125 17.3959 5.74125C16.2636 5.74125 15.3459 6.65907 15.3459 7.79125C15.3459 8.92343 16.2636 9.84125 17.3959 9.84125Z" fill="#FFF112" stroke="black" stroke-width="0.5"/>
</svg>
