<svg width="14" height="19" viewBox="0 0 14 19" fill="none" xmlns="http://www.w3.org/2000/svg">
<path d="M6.63964 0C4.16831 0 2.15918 2.00913 2.15918 4.48046C2.15918 6.90462 4.05512 8.86659 6.52645 8.95149C6.60191 8.94205 6.67737 8.94205 6.73397 8.95149C6.75283 8.95149 6.76226 8.95149 6.78113 8.95149C6.79056 8.95149 6.79056 8.95149 6.79999 8.95149C9.21473 8.86659 11.1107 6.90462 11.1201 4.48046C11.1201 2.00913 9.11097 0 6.63964 0Z" fill="#FFF112"/>
<path d="M11.4322 11.4594C8.80053 9.70494 4.50876 9.70494 1.85821 11.4594C0.660278 12.2612 0 13.3459 0 14.5061C0 15.6663 0.660278 16.7416 1.84878 17.534C3.16934 18.4206 4.90493 18.8639 6.64051 18.8639C8.37607 18.8639 10.1117 18.4206 11.4322 17.534C12.6207 16.7322 13.281 15.6569 13.281 14.4872C13.2716 13.327 12.6207 12.2517 11.4322 11.4594Z" fill="#FFF112"/>
</svg>
