<svg width="13" height="13" viewBox="0 0 13 13" fill="none" xmlns="http://www.w3.org/2000/svg">
<path d="M8.46561 13.0002C9.28013 13.0002 9.97907 12.9574 10.563 12.8276C11.1545 12.6962 11.6671 12.4671 12.067 12.0672C12.4669 11.6673 12.696 11.1546 12.8274 10.5632C12.9572 9.97925 13 9.28031 13 8.4658V6.5002C13 5.78221 12.418 5.2002 11.7 5.2002H6.50001C5.78202 5.2002 5.20001 5.78221 5.20001 6.5002V11.7002C5.20001 12.4182 5.78202 13.0002 6.50001 13.0002H8.46561Z" fill="#FFF112"/>
<path d="M0 8.4658C0 9.28031 0.0427961 9.97926 0.172588 10.5632C0.304018 11.1547 0.533136 11.6673 0.933029 12.0672C1.33292 12.4671 1.84556 12.6962 2.43695 12.8276C2.49358 12.8402 2.5505 12.852 2.60766 12.863C3.31259 12.9992 3.9 12.4026 3.9 11.6846V6.5002C3.9 5.78221 3.31797 5.2002 2.6 5.2002H1.3C0.582029 5.2002 0 5.78221 0 6.5002V8.4658Z" fill="#FFF112"/>
<path d="M4.5344 0C3.71987 0 3.02095 0.0427961 2.43695 0.172588C1.84557 0.304018 1.33292 0.533136 0.93303 0.933029C0.533137 1.33292 0.304019 1.84556 0.172589 2.43695C0.161799 2.48551 0.151646 2.53423 0.14211 2.58309C0.00276306 3.29724 0.610305 3.9 1.33792 3.9H11.6844C12.4024 3.9 12.999 3.31259 12.8629 2.60766C12.8518 2.5505 12.84 2.49358 12.8274 2.43695C12.696 1.84556 12.4669 1.33292 12.0669 0.933029C11.6671 0.533136 11.1544 0.304018 10.563 0.172588C9.97902 0.0427961 9.28014 0 8.46562 0H4.5344Z" fill="#FFF112"/>
</svg>
