<svg width="11" height="15" viewBox="0 0 11 15" fill="none" xmlns="http://www.w3.org/2000/svg">
<path d="M9.99982 11.875L8.08203 13.7928" stroke="black" stroke-linecap="round" stroke-linejoin="round"/>
<path d="M9.99982 13.7928L8.08203 11.875" stroke="black" stroke-linecap="round" stroke-linejoin="round"/>
<path d="M5.74985 6.96529C5.68184 6.95849 5.60024 6.95849 5.52543 6.96529C3.90691 6.91088 2.62158 5.58476 2.62158 3.9526C2.62158 2.28644 3.96811 0.933105 5.64104 0.933105C7.3072 0.933105 8.66053 2.28644 8.66053 3.9526C8.65373 5.58476 7.36841 6.91088 5.74985 6.96529Z" stroke="black" stroke-linecap="round" stroke-linejoin="round"/>
<path d="M5.64146 14.4056C4.40374 14.4056 3.17281 14.0928 2.23432 13.4671C0.58856 12.3654 0.58856 10.57 2.23432 9.47511C4.1045 8.22379 7.17161 8.22379 9.04179 9.47511" stroke="black" stroke-linecap="round" stroke-linejoin="round"/>
</svg>
