<svg width="61" height="53" viewBox="0 0 61 53" fill="none" xmlns="http://www.w3.org/2000/svg">
<path d="M57.2638 52.8147C58.3801 52.8147 59.468 52.238 60.067 51.1984C60.6672 50.1625 60.6214 48.9311 60.0633 47.9633L33.2964 1.61878C32.7358 0.652217 31.6937 0 30.497 0C29.3014 0 28.2594 0.652217 27.6987 1.61878L0.938 47.9633C0.377366 48.9311 0.332812 50.1625 0.933049 51.1984C1.53205 52.238 2.61867 52.8147 3.73746 52.8147H57.2638Z" fill="black"/>
<path d="M30.4945 5.37622L5.6001 48.498H55.3901L30.4945 5.37622Z" fill="#FFF112"/>
<path d="M33.9398 42.8138C33.9398 44.7185 32.399 46.2606 30.4955 46.2606C28.5946 46.2606 27.0513 44.7185 27.0513 42.8138C27.0513 40.9129 28.5946 39.3721 30.4955 39.3721C32.399 39.3721 33.9398 40.9129 33.9398 42.8138Z" fill="black"/>
<path d="M28.6593 35.1121C28.6593 36.1269 29.4823 36.9499 30.4959 36.9499C31.5107 36.9499 32.3337 36.1269 32.3337 35.1121L34.3411 18.4837C34.3411 16.3587 32.6209 14.6384 30.4959 14.6384C28.3734 14.6384 26.6494 16.3587 26.6494 18.4837L28.6593 35.1121Z" fill="black"/>
</svg>
