<svg width="24" height="23" viewBox="0 0 24 23" fill="none" xmlns="http://www.w3.org/2000/svg">
<path d="M21.3645 5.73913L11.2878 15.8158C10.2844 16.8192 7.30571 17.284 6.64027 16.6185C5.97482 15.9531 6.42901 12.9744 7.43246 11.971L17.5197 1.88376C17.7685 1.61237 18.0696 1.39421 18.4051 1.24242C18.7405 1.09064 19.1032 1.00836 19.4713 1.0006C19.8393 0.99286 20.2052 1.05976 20.5467 1.1973C20.8881 1.33483 21.1983 1.54017 21.4582 1.80085C21.7181 2.06154 21.9226 2.37218 22.0592 2.71405C22.1958 3.05593 22.2618 3.42192 22.253 3.78998C22.2443 4.15803 22.1609 4.52052 22.0083 4.85552C21.8556 5.19051 21.6366 5.49111 21.3645 5.73913Z" stroke="black" stroke-width="1.5" stroke-linecap="round" stroke-linejoin="round"/>
<path d="M10.5063 3.2041H5.22503C4.10448 3.2041 3.02989 3.64923 2.23754 4.44158C1.4452 5.23393 1 6.30858 1 7.42913V17.9917C1 19.1123 1.4452 20.1869 2.23754 20.9792C3.02989 21.7716 4.10448 22.2167 5.22503 22.2167H16.8438C19.1782 22.2167 20.0126 20.3155 20.0126 17.9917V12.7104" stroke="black" stroke-width="1.5" stroke-linecap="round" stroke-linejoin="round"/>
</svg>
