<svg width="137" height="153" viewBox="0 0 137 153" fill="none" xmlns="http://www.w3.org/2000/svg">
<path d="M126.077 57.0193H0.299561V152.097H126.077V57.0193Z" fill="#E6C1F5"/>
<path d="M126.077 152.378H0.299532C0.220221 152.378 0.144162 152.347 0.0880805 152.291C0.0319989 152.235 0.000488281 152.159 0.000488281 152.079V56.9834C0.000488281 56.9041 0.0319989 56.828 0.0880805 56.7719C0.144162 56.7159 0.220221 56.6843 0.299532 56.6843H126.077C126.156 56.6873 126.23 56.7198 126.286 56.7752C126.341 56.8307 126.373 56.905 126.376 56.9834V152.079C126.376 152.159 126.345 152.235 126.289 152.291C126.233 152.347 126.157 152.378 126.077 152.378ZM0.61054 151.78H125.79V57.2824H0.61054V151.78Z" fill="#263238"/>
<path d="M0.299561 57.0193L56.0772 2.54544C57.7742 1.1079 59.9215 0.311023 62.1454 0.293537C64.3694 0.276052 66.529 1.03907 68.2483 2.44975L126.077 57.0193H0.299561Z" fill="#E6C1F5"/>
<path d="M126.077 57.3183H0.299381C0.24016 57.3188 0.182171 57.3014 0.133058 57.2683C0.0839458 57.2352 0.0460196 57.188 0.0242661 57.1329C0.00188377 57.0777 -0.00381691 57.0171 0.00787565 56.9586C0.0195682 56.9001 0.0481417 56.8464 0.0900561 56.804L55.8677 2.33611C57.616 0.848876 59.8308 0.0222992 62.1259 0.000440138C64.4211 -0.0214189 66.6512 0.762819 68.4276 2.21648L126.269 56.804C126.313 56.8448 126.344 56.8982 126.356 56.9571C126.369 57.016 126.364 57.0774 126.34 57.1329C126.319 57.1857 126.282 57.2312 126.236 57.264C126.189 57.2969 126.134 57.3157 126.077 57.3183ZM1.03504 56.7202H125.324L68.0448 2.66505C66.3799 1.303 64.2899 0.568335 62.139 0.589101C59.9881 0.609867 57.9126 1.38475 56.2744 2.77869L1.03504 56.7202Z" fill="#263238"/>
<path d="M115.647 11.6364H10.7302V100.177H115.647V11.6364Z" fill="white"/>
<path d="M115.647 100.47H10.7302C10.6509 100.47 10.5748 100.439 10.5187 100.383C10.4627 100.327 10.4312 100.251 10.4312 100.171V11.6543C10.4312 11.575 10.4627 11.4989 10.5187 11.4429C10.5748 11.3868 10.6509 11.3553 10.7302 11.3553H115.647C115.726 11.3553 115.802 11.3868 115.858 11.4429C115.914 11.4989 115.946 11.575 115.946 11.6543V100.171C115.946 100.251 115.914 100.327 115.858 100.383C115.802 100.439 115.726 100.47 115.647 100.47ZM11.0292 99.8723H115.348V11.9534H11.0292V99.8723Z" fill="#263238"/>
<path d="M111.048 94.7885H15.3535C15.2932 94.7885 15.2354 94.7646 15.1928 94.7219C15.1502 94.6793 15.1262 94.6215 15.1262 94.5612V17.2464C15.1278 17.1872 15.1524 17.1309 15.1949 17.0896C15.2373 17.0482 15.2942 17.0251 15.3535 17.0251H111.048C111.105 17.028 111.16 17.0523 111.201 17.0932C111.242 17.1341 111.266 17.1887 111.269 17.2464V94.5612C111.269 94.6205 111.246 94.6774 111.204 94.7199C111.163 94.7623 111.107 94.7869 111.048 94.7885ZM15.5628 94.3639H110.82V17.4737H15.5628V94.3639Z" fill="#E6C1F5"/>
<path d="M107.991 92.6892H18.3859C18.2273 92.6892 18.0752 92.6262 17.963 92.5141C17.8509 92.4019 17.7878 92.2498 17.7878 92.0912V19.7225C17.7878 19.5639 17.8509 19.4118 17.963 19.2996C18.0752 19.1874 18.2273 19.1244 18.3859 19.1244H107.991C108.15 19.1244 108.302 19.1874 108.414 19.2996C108.527 19.4118 108.59 19.5639 108.59 19.7225V92.0912C108.59 92.2498 108.527 92.4019 108.414 92.5141C108.302 92.6262 108.15 92.6892 107.991 92.6892ZM18.984 91.4931H107.393V20.3206H18.984V91.4931Z" fill="#E6C1F5"/>
<path d="M0.299561 57.5635L63.1885 105.1L126.071 57.5635V152.636H0.299561V57.5635Z" fill="#E6C1F5"/>
<path d="M126.077 152.935H0.299532C0.220221 152.935 0.144162 152.903 0.0880805 152.847C0.0319989 152.791 0.000488281 152.715 0.000488281 152.636V57.5396C0.00379304 57.4852 0.020817 57.4325 0.04997 57.3865C0.0791229 57.3404 0.119461 57.3025 0.167222 57.2762C0.214983 57.2499 0.268615 57.2362 0.323123 57.2362C0.377632 57.2363 0.431241 57.2501 0.47896 57.2765L63.1885 104.675L125.892 57.2824C125.954 57.2335 126.033 57.2111 126.111 57.2201C126.19 57.2291 126.261 57.2687 126.311 57.3303C126.352 57.3831 126.376 57.4483 126.376 57.5157V152.612C126.381 152.651 126.377 152.691 126.366 152.729C126.354 152.766 126.335 152.802 126.31 152.832C126.285 152.863 126.255 152.888 126.22 152.907C126.185 152.925 126.147 152.937 126.107 152.941L126.077 152.935ZM0.598576 152.337H125.778V58.1616L63.3679 105.339C63.3157 105.377 63.2529 105.397 63.1885 105.397C63.124 105.397 63.0612 105.377 63.009 105.339L0.61054 58.1616L0.598576 152.337Z" fill="#263238"/>
<path d="M0.299561 152.636L54.4444 98.4907H71.9265L126.071 152.636H0.299561Z" fill="#E6C1F5"/>
<path d="M126.077 152.935H0.299634C0.241436 152.934 0.184615 152.917 0.135866 152.885C0.0871169 152.853 0.0484806 152.808 0.0245184 152.755C0.000497539 152.7 -0.00607399 152.639 0.00569127 152.58C0.0174565 152.522 0.0469921 152.468 0.0903084 152.426L54.2352 98.2813C54.2619 98.2526 54.2943 98.2298 54.3303 98.2143C54.3664 98.1989 54.4053 98.1912 54.4445 98.1916H71.9266C71.9658 98.1912 72.0047 98.1989 72.0408 98.2143C72.0768 98.2298 72.1092 98.2526 72.1359 98.2813L126.287 152.426C126.327 152.469 126.355 152.523 126.367 152.581C126.378 152.639 126.373 152.7 126.353 152.755C126.329 152.808 126.29 152.853 126.241 152.885C126.193 152.917 126.136 152.934 126.077 152.935ZM1.02332 152.337H125.354L71.7831 98.7897H54.5701L1.02332 152.337Z" fill="#263238"/>
<path d="M134.307 79.3937L134.235 80.578L136.161 81.0205L136.305 79.4715L134.307 79.3937Z" fill="white"/>
<path d="M99.558 46.5142H26.3015V59.0542H99.558V46.5142Z" fill="white"/>
<path d="M99.8533 57.3558C99.8533 58.4603 98.9579 59.3558 97.8533 59.3558H28C26.8954 59.3558 26 58.4603 26 57.3558V48.2129C26 47.1083 26.8954 46.2129 28 46.2129H97.8533C98.9579 46.2129 99.8533 47.1083 99.8533 48.2129V57.3558ZM26.6029 56.7529C26.6029 57.8575 27.4983 58.7529 28.6029 58.7529H97.2504C98.355 58.7529 99.2504 57.8575 99.2504 56.7529V48.8158C99.2504 47.7112 98.355 46.8158 97.2504 46.8158H28.6029C27.4983 46.8158 26.6029 47.7112 26.6029 48.8158V56.7529Z" fill="#C2C1C1"/>
<path d="M33.9039 49.9746H33.301V55.3343H33.9039V49.9746Z" fill="black"/>
<path d="M36.2852 52.3502H30.9255V52.9531H36.2852V52.3502Z" fill="black"/>
<path d="M35.288 50.5408L31.4968 54.3293L31.923 54.7558L35.7141 50.9672L35.288 50.5408Z" fill="black"/>
<path d="M31.9185 50.5438L31.4922 50.9701L35.282 54.7599L35.7083 54.3336L31.9185 50.5438Z" fill="black"/>
<path d="M42.9955 49.9746H42.3926V55.3343H42.9955V49.9746Z" fill="black"/>
<path d="M45.3767 52.3502H40.0171V52.9531H45.3767V52.3502Z" fill="black"/>
<path d="M44.3773 50.5467L40.5862 54.3352L41.0123 54.7617L44.8035 50.9732L44.3773 50.5467Z" fill="black"/>
<path d="M41.0118 50.5416L40.5854 50.9679L44.3753 54.7577L44.8016 54.3314L41.0118 50.5416Z" fill="black"/>
<path d="M52.0868 49.9746H51.4839V55.3343H52.0868V49.9746Z" fill="black"/>
<path d="M54.4683 52.3502H49.1086V52.9531H54.4683V52.3502Z" fill="black"/>
<path d="M53.4672 50.5472L49.676 54.3358L50.1022 54.7622L53.8933 50.9737L53.4672 50.5472Z" fill="black"/>
<path d="M50.1053 50.54L49.679 50.9663L53.4688 54.7561L53.8951 54.3298L50.1053 50.54Z" fill="black"/>
<path d="M61.1844 49.9746H60.5815V55.3343H61.1844V49.9746Z" fill="black"/>
<path d="M63.5598 52.3502H58.2002V52.9531H63.5598V52.3502Z" fill="black"/>
<path d="M62.5626 50.5478L58.7715 54.3363L59.1976 54.7628L62.9888 50.9742L62.5626 50.5478Z" fill="black"/>
<path d="M59.2029 50.5459L58.7766 50.9722L62.5664 54.7621L62.9928 54.3358L59.2029 50.5459Z" fill="black"/>
<path d="M70.2757 49.9746H69.6729V55.3343H70.2757V49.9746Z" fill="black"/>
<path d="M72.6512 52.3502H67.2915V52.9531H72.6512V52.3502Z" fill="black"/>
<path d="M71.6525 50.5478L67.8613 54.3363L68.2875 54.7628L72.0787 50.9742L71.6525 50.5478Z" fill="black"/>
<path d="M68.2903 50.5378L67.864 50.9641L71.6539 54.754L72.0802 54.3277L68.2903 50.5378Z" fill="black"/>
<path d="M79.3673 49.9746H78.7644V55.3343H79.3673V49.9746Z" fill="black"/>
<path d="M81.7488 52.3502H76.3892V52.9531H81.7488V52.3502Z" fill="black"/>
<path d="M80.7462 50.544L76.9551 54.3325L77.3812 54.759L81.1724 50.9705L80.7462 50.544Z" fill="black"/>
<path d="M77.3838 50.5357L76.9575 50.962L80.7474 54.7518L81.1737 54.3255L77.3838 50.5357Z" fill="black"/>
<path d="M93.2998 54.7197C92.6456 54.6805 92.008 54.4982 91.432 54.1857C90.8559 53.8732 90.3555 53.4381 89.9659 52.9111L89.8333 52.7302L89.9659 52.5554C90.3307 52.0107 90.8241 51.5643 91.4024 51.2557C91.9807 50.947 92.6262 50.7855 93.2818 50.7855C93.9373 50.7855 94.5828 50.947 95.1611 51.2557C95.7394 51.5643 96.2328 52.0107 96.5976 52.5554L96.7242 52.7302L96.5976 52.9111C96.2122 53.4339 95.7175 53.8665 95.148 54.1788C94.5786 54.4912 93.9479 54.6757 93.2998 54.7197ZM90.5989 52.7543C90.9098 53.1827 91.3177 53.5314 91.7892 53.7718C92.2608 54.0123 92.7826 54.1376 93.3119 54.1376C93.8412 54.1376 94.363 54.0123 94.8345 53.7718C95.3061 53.5314 95.714 53.1827 96.0249 52.7543C95.714 52.3259 95.3061 51.9772 94.8345 51.7368C94.363 51.4964 93.8412 51.371 93.3119 51.371C92.7826 51.371 92.2608 51.4964 91.7892 51.7368C91.3177 51.9772 90.9098 52.3259 90.5989 52.7543Z" fill="#C2C1C1"/>
<path d="M93.294 54.1108C94.0432 54.1108 94.6505 53.5035 94.6505 52.7543C94.6505 52.0052 94.0432 51.3978 93.294 51.3978C92.5448 51.3978 91.9375 52.0052 91.9375 52.7543C91.9375 53.5035 92.5448 54.1108 93.294 54.1108Z" fill="#C2C1C1"/>
<path d="M95.5274 50.034L90.7102 54.8512L91.1365 55.2775L95.9537 50.4603L95.5274 50.034Z" fill="#C2C1C1"/>
</svg>
