<svg width="16" height="15" viewBox="0 0 16 15" fill="none" xmlns="http://www.w3.org/2000/svg">
<path fill-rule="evenodd" clip-rule="evenodd" d="M4.65534 11.5118C4.65534 11.2151 4.41485 10.9746 4.11819 10.9746H0.537155C0.240495 10.9746 0 11.2151 0 11.5118C0 11.8084 0.240495 12.0489 0.537155 12.0489H4.11819C4.41485 12.0489 4.65534 11.8084 4.65534 11.5118Z" fill="black"/>
<path fill-rule="evenodd" clip-rule="evenodd" d="M10.743 3.6309C10.743 3.33424 10.9835 3.09375 11.2802 3.09375H14.8612C15.1579 3.09375 15.3984 3.33424 15.3984 3.6309C15.3984 3.92756 15.1579 4.16806 14.8612 4.16806H11.2802C10.9835 4.16806 10.743 3.92756 10.743 3.6309Z" fill="black"/>
<path fill-rule="evenodd" clip-rule="evenodd" d="M15.3986 11.5118C15.3986 11.2151 15.1581 10.9746 14.8614 10.9746H8.41557C8.11892 10.9746 7.87842 11.2151 7.87842 11.5118C7.87842 11.8084 8.11892 12.0489 8.41557 12.0489H14.8614C15.1581 12.0489 15.3986 11.8084 15.3986 11.5118Z" fill="black"/>
<path fill-rule="evenodd" clip-rule="evenodd" d="M0 3.6309C0 3.33424 0.240495 3.09375 0.537155 3.09375H6.98301C7.27966 3.09375 7.52017 3.33424 7.52017 3.6309C7.52017 3.92756 7.27966 4.16806 6.98301 4.16806H0.537155C0.240495 4.16806 0 3.92756 0 3.6309Z" fill="black"/>
<path fill-rule="evenodd" clip-rule="evenodd" d="M6.26677 9.82822C7.15673 9.82822 7.87823 10.5497 7.87823 11.4397C7.87823 12.3296 7.15673 13.0511 6.26677 13.0511C5.37678 13.0511 4.6553 12.3296 4.6553 11.4397C4.6553 10.5497 5.37678 9.82822 6.26677 9.82822ZM8.95254 11.4397C8.95254 9.95635 7.7501 8.75391 6.26677 8.75391C4.78345 8.75391 3.58099 9.95635 3.58099 11.4397C3.58099 12.923 4.78345 14.1255 6.26677 14.1255C7.7501 14.1255 8.95254 12.923 8.95254 11.4397Z" fill="black"/>
<path fill-rule="evenodd" clip-rule="evenodd" d="M9.13176 1.94931C8.2418 1.94931 7.52029 2.67079 7.52029 3.56077C7.52029 4.45076 8.2418 5.17224 9.13176 5.17224C10.0217 5.17224 10.7432 4.45076 10.7432 3.56077C10.7432 2.67079 10.0217 1.94931 9.13176 1.94931ZM6.44598 3.56077C6.44598 2.07746 7.64842 0.875 9.13176 0.875C10.6151 0.875 11.8175 2.07746 11.8175 3.56077C11.8175 5.04409 10.6151 6.24655 9.13176 6.24655C7.64842 6.24655 6.44598 5.04409 6.44598 3.56077Z" fill="black"/>
</svg>
