<svg width="44" height="40" viewBox="0 0 44 40" fill="none" xmlns="http://www.w3.org/2000/svg">
<path d="M37.125 7.5V6.125C37.1218 5.03196 36.6862 3.98459 35.9133 3.21169C35.1404 2.43879 34.093 2.00317 33 2H5.5C4.40696 2.00317 3.35959 2.43879 2.58669 3.21169C1.81379 3.98459 1.37817 5.03196 1.375 6.125V28.125C1.37817 29.218 1.81379 30.2654 2.58669 31.0383C3.35959 31.8112 4.40696 32.2468 5.5 32.25H6.875" stroke="black" stroke-width="2.75" stroke-linejoin="round"/>
<path d="M38.6727 8.875H12.2023C10.0195 8.875 8.25 10.6445 8.25 12.8273V33.7977C8.25 35.9805 10.0195 37.75 12.2023 37.75H38.6727C40.8555 37.75 42.625 35.9805 42.625 33.7977V12.8273C42.625 10.6445 40.8555 8.875 38.6727 8.875Z" stroke="black" stroke-width="2.75" stroke-linejoin="round"/>
<path d="M32.0479 19.3757C33.5083 19.3757 34.6922 18.2002 34.6922 16.7503C34.6922 15.3003 33.5083 14.1249 32.0479 14.1249C30.5875 14.1249 29.4036 15.3003 29.4036 16.7503C29.4036 18.2002 30.5875 19.3757 32.0479 19.3757Z" stroke="black" stroke-width="2.75" stroke-miterlimit="10"/>
<path d="M29.4035 29.8584L21.9141 22.4342C21.4353 21.9612 20.7949 21.6874 20.1221 21.6681C19.4494 21.6488 18.7943 21.8854 18.2892 22.3302L8.25 31.1878" stroke="black" stroke-width="2.75" stroke-linecap="round" stroke-linejoin="round"/>
<path d="M22.7932 37.75L32.9845 27.6326C33.4535 27.1701 34.0772 26.8977 34.7352 26.8681C35.3932 26.8384 36.0388 27.0535 36.5475 27.4719L42.625 32.5001" stroke="black" stroke-width="2.75" stroke-linecap="round" stroke-linejoin="round"/>
</svg>
