<svg width="13" height="13" viewBox="0 0 13 13" fill="none" xmlns="http://www.w3.org/2000/svg">
<path fill-rule="evenodd" clip-rule="evenodd" d="M0.33748 3.78478C3.8743e-08 4.40133 0 5.14507 0 6.63253V7.62125C0 10.1568 7.7486e-08 11.4246 0.761521 12.2123C1.52305 13 2.74869 13 5.2 13H7.8C10.2513 13 11.477 13 12.2385 12.2123C13 11.4246 13 10.1568 13 7.62125V6.63253C13 5.14507 13 4.40133 12.6625 3.78478C12.325 3.16824 11.7085 2.78558 10.4754 2.02028L9.1754 1.21347C7.87189 0.404488 7.22013 0 6.5 0C5.77986 0 5.1281 0.404488 3.82462 1.21347L2.52462 2.02028C1.29152 2.78558 0.67496 3.16824 0.33748 3.78478ZM6.0125 10.4C6.0125 10.6692 6.23077 10.8875 6.5 10.8875C6.76923 10.8875 6.9875 10.6692 6.9875 10.4V8.45C6.9875 8.18077 6.76923 7.9625 6.5 7.9625C6.23077 7.9625 6.0125 8.18077 6.0125 8.45V10.4Z" fill="#FFF112"/>
</svg>
