<svg width="13" height="15" viewBox="0 0 13 15" fill="none" xmlns="http://www.w3.org/2000/svg">
<path d="M4.56213 13.5793L4.56212 13.5793L4.56235 13.5796C5.25144 14.2399 5.83835 14.6071 6.45358 14.6C7.06766 14.593 7.6543 14.2135 8.3443 13.5416L8.34492 13.541C9.3007 12.6149 10.5093 11.3915 11.378 9.9505L11.378 9.9505C12.248 8.50748 12.786 6.83191 12.377 5.00895L12.377 5.00893C10.9869 -1.18819 1.89456 -1.19518 0.49713 5.00213C0.0997394 6.77355 0.596612 8.40766 1.42251 9.82411L1.42252 9.82412C2.24737 11.2389 3.40781 12.4494 4.3589 13.3815C4.41378 13.4353 4.46801 13.4882 4.52149 13.5402L4.56213 13.5793ZM4.56213 13.5793L4.56004 13.5773M4.56213 13.5793L4.56004 13.5773M4.56004 13.5773L4.52249 13.5412L4.56004 13.5773ZM6.4371 3.12155C4.99055 3.12155 3.81786 4.29422 3.81786 5.74079C3.81786 7.18732 4.99055 8.36001 6.4371 8.36001C7.88364 8.36001 9.05633 7.18732 9.05633 5.74079C9.05633 4.29422 7.88364 3.12155 6.4371 3.12155Z" fill="#FFF112" stroke="black" stroke-width="0.715232"/>
</svg>
