<svg width="12" height="14" viewBox="0 0 12 14" fill="none" xmlns="http://www.w3.org/2000/svg">
<path d="M3.77881 4.18302C3.78554 2.97468 3.83912 2.3203 4.26599 1.89342C4.75414 1.40527 5.53982 1.40527 7.11113 1.40527H7.66668C9.238 1.40527 10.0237 1.40527 10.5118 1.89342C11 2.38157 11 3.16724 11 4.73857V9.18296C11 10.7543 11 11.5399 10.5118 12.0281C10.0237 12.5163 9.238 12.5163 7.66668 12.5163H7.11113C5.53982 12.5163 4.75414 12.5163 4.26599 12.0281C3.83912 11.6012 3.78554 10.9468 3.77881 9.73851" stroke="black" stroke-linecap="round"/>
<path d="M3.77775 11.1272C2.46831 11.1272 1.81359 11.1272 1.40679 10.7204C1 10.3136 1 9.65887 1 8.34944V5.57169C1 4.26225 1 3.60753 1.40679 3.20074C1.81359 2.79395 2.46831 2.79395 3.77775 2.79395" stroke="black"/>
<path d="M7.66645 6.96071H2.6665M2.6665 6.96071L3.7776 8.07181M2.6665 6.96071L3.7776 5.84961" stroke="black" stroke-linecap="round" stroke-linejoin="round"/>
</svg>
