<svg width="60" height="23" viewBox="0 0 60 23" fill="none" xmlns="http://www.w3.org/2000/svg">
<path d="M41.25 11C41.25 13.0711 42.9289 14.75 45 14.75C47.0711 14.75 48.75 13.0711 48.75 11C48.75 8.92893 47.0711 7.25 45 7.25C42.9289 7.25 41.25 8.92893 41.25 11Z" fill="#080341"/>
<path d="M26.25 11C26.25 13.0711 27.9289 14.75 30 14.75C32.0711 14.75 33.75 13.0711 33.75 11C33.75 8.92893 32.0711 7.25 30 7.25C27.9289 7.25 26.25 8.92893 26.25 11Z" fill="#080341"/>
<path d="M11.25 11C11.25 13.0711 12.9289 14.75 15 14.75C17.0711 14.75 18.75 13.0711 18.75 11C18.75 8.92893 17.0711 7.25 15 7.25C12.9289 7.25 11.25 8.92893 11.25 11Z" fill="#080341"/>
</svg>
