<svg width="13" height="13" viewBox="0 0 13 13" fill="none" xmlns="http://www.w3.org/2000/svg">
<path d="M9.49496 0.140259H3.16499C1.266 0.140259 0 1.40625 0 3.30525V7.10324C0 9.00223 1.266 10.2682 3.16499 10.2682H5.69698L8.51382 12.1419C8.93159 12.4204 9.49496 12.1229 9.49496 11.6165V10.2682C11.394 10.2682 12.66 9.00223 12.66 7.10324V3.30525C12.66 1.40625 11.394 0.140259 9.49496 0.140259ZM8.54547 5.7233H4.11448C3.85495 5.7233 3.63974 5.50808 3.63974 5.24856C3.63974 4.98903 3.85495 4.7738 4.11448 4.7738H8.54547C8.805 4.7738 9.02021 4.98903 9.02021 5.24856C9.02021 5.50808 8.805 5.7233 8.54547 5.7233Z" fill="black"/>
</svg>
