<svg width="13" height="13" viewBox="0 0 13 13" fill="none" xmlns="http://www.w3.org/2000/svg">
<path d="M9.49496 0.140137H3.16499C1.266 0.140137 0 1.40613 0 3.30512V7.10312C0 9.00211 1.266 10.2681 3.16499 10.2681H5.69698L8.51382 12.1418C8.93159 12.4203 9.49496 12.1228 9.49496 11.6164V10.2681C11.394 10.2681 12.66 9.00211 12.66 7.10312V3.30512C12.66 1.40613 11.394 0.140137 9.49496 0.140137ZM8.54547 5.72318H4.11448C3.85495 5.72318 3.63974 5.50796 3.63974 5.24843C3.63974 4.9889 3.85495 4.77368 4.11448 4.77368H8.54547C8.805 4.77368 9.02021 4.9889 9.02021 5.24843C9.02021 5.50796 8.805 5.72318 8.54547 5.72318Z" fill="#FFF112"/>
</svg>
