<svg width="35" height="26" viewBox="0 0 35 26" fill="none" xmlns="http://www.w3.org/2000/svg">
<g clip-path="url(#clip0_492_6361)">
<path d="M7.29232 13.5207C7.85611 13.5207 8.31315 13.0636 8.31315 12.4998C8.31315 11.936 7.85611 11.479 7.29232 11.479C6.72853 11.479 6.27148 11.936 6.27148 12.4998C6.27148 13.0636 6.72853 13.5207 7.29232 13.5207Z" stroke="#0F0A0A" stroke-width="2.04167" stroke-linecap="round" stroke-linejoin="round"/>
<path d="M17.4993 13.5207C18.0631 13.5207 18.5202 13.0636 18.5202 12.4998C18.5202 11.936 18.0631 11.479 17.4993 11.479C16.9356 11.479 16.4785 11.936 16.4785 12.4998C16.4785 13.0636 16.9356 13.5207 17.4993 13.5207Z" stroke="#0F0A0A" stroke-width="2.04167" stroke-linecap="round" stroke-linejoin="round"/>
<path d="M27.7083 13.5207C28.2721 13.5207 28.7292 13.0636 28.7292 12.4998C28.7292 11.936 28.2721 11.479 27.7083 11.479C27.1445 11.479 26.6875 11.936 26.6875 12.4998C26.6875 13.0636 27.1445 13.5207 27.7083 13.5207Z" stroke="#0F0A0A" stroke-width="2.04167" stroke-linecap="round" stroke-linejoin="round"/>
</g>
<defs>
<clipPath id="clip0_492_6361">
<rect width="26" height="35" fill="white" transform="matrix(0 -1 1 0 0 26)"/>
</clipPath>
</defs>
</svg>
