<svg width="13" height="12" viewBox="0 0 13 12" fill="none" xmlns="http://www.w3.org/2000/svg">
<path d="M13 5.05409V6.39308C13 6.75058 12.714 7.04307 12.35 7.05607H11.0761C10.3741 7.05607 9.73057 6.54258 9.67207 5.84059C9.63307 5.43109 9.78907 5.04759 10.0621 4.7811C10.3026 4.5341 10.6341 4.39111 10.9981 4.39111H12.35C12.714 4.40411 13 4.6966 13 5.05409Z" fill="#FFF112"/>
<path d="M12.0054 8.03164H11.0759C9.8409 8.03164 8.80091 7.10215 8.69692 5.91916C8.63842 5.24317 8.88541 4.56718 9.37941 4.08618C9.7954 3.65718 10.3739 3.41669 10.9979 3.41669H12.0054C12.1939 3.41669 12.3499 3.26069 12.3304 3.07219C12.1874 1.49271 11.1409 0.413717 9.58741 0.231718C9.43141 0.205719 9.26891 0.199219 9.09991 0.199219H3.24997C3.06797 0.199219 2.89247 0.212219 2.72347 0.238218C1.06599 0.446216 0 1.6812 0 3.44919V7.99914C0 9.79313 1.45599 11.2491 3.24997 11.2491H9.09991C10.9199 11.2491 12.1744 10.1116 12.3304 8.37614C12.3499 8.18764 12.1939 8.03164 12.0054 8.03164ZM7.14993 4.26168H3.24997C2.98347 4.26168 2.76247 4.04068 2.76247 3.77418C2.76247 3.50769 2.98347 3.28669 3.24997 3.28669H7.14993C7.41643 3.28669 7.63743 3.50769 7.63743 3.77418C7.63743 4.04068 7.41643 4.26168 7.14993 4.26168Z" fill="#FFF112"/>
</svg>
