<svg width="48" height="48" viewBox="0 0 48 48" fill="none" xmlns="http://www.w3.org/2000/svg">
<circle cx="24" cy="24" r="24" transform="matrix(-1 0 0 1 48 0)" fill="#FFF112"/>
<path d="M24.505 18.2386V21.418" stroke="black" stroke-width="1.5" stroke-miterlimit="10" stroke-linecap="round"/>
<path d="M24.4859 14C27.9995 14 30.8447 16.8452 30.8447 20.3588V22.3638C30.8447 23.0131 31.1121 23.9869 31.4462 24.5407L32.6588 26.5648C33.4035 27.8156 32.8879 29.2095 31.5131 29.6678C26.9493 31.1859 22.0131 31.1859 17.4493 29.6678C16.1603 29.2382 15.6066 27.7296 16.3035 26.5648L17.5161 24.5407C17.8503 23.9869 18.1176 23.0035 18.1176 22.3638V20.3588C18.1272 16.8643 20.9915 14 24.4859 14Z" stroke="black" stroke-width="1.5" stroke-miterlimit="10" stroke-linecap="round"/>
<path d="M21.3257 30.059C21.3257 31.8062 22.7578 33.2384 24.5051 33.2384C25.3739 33.2384 26.1759 32.8755 26.7488 32.3027C27.3216 31.7298 27.6844 30.9278 27.6844 30.059" stroke="black" stroke-width="1.5" stroke-miterlimit="10"/>
</svg>
