<svg width="10" height="13" viewBox="0 0 10 13" fill="none" xmlns="http://www.w3.org/2000/svg">
<path d="M1.97998 3.07162C1.97998 1.65352 3.1335 0.5 4.5516 0.5C5.96938 0.5 7.12271 1.653 7.12323 3.07066C7.11731 4.46216 6.03369 5.58385 4.65237 5.63678H4.65235H4.65232H4.6523H4.65228H4.65225H4.65223H4.6522H4.65218H4.65215H4.65213H4.6521H4.65208H4.65205H4.65203H4.652H4.65198H4.65195H4.65193H4.6519H4.65188H4.65185H4.65183H4.6518H4.65177H4.65175H4.65172H4.6517H4.65167H4.65164H4.65162H4.65159H4.65156H4.65154H4.65151H4.65148H4.65146H4.65143H4.6514H4.65138H4.65135H4.65132H4.65129H4.65127H4.65124H4.65121H4.65118H4.65115H4.65113H4.6511H4.65107H4.65104H4.65101H4.65098H4.65095H4.65093H4.6509H4.65087H4.65084H4.65081H4.65078H4.65075H4.65072H4.65069H4.65066H4.65063H4.6506H4.65057H4.65054H4.65051H4.65048H4.65045H4.65042H4.65039H4.65036H4.65032H4.65029H4.65026H4.65023H4.6502H4.65017H4.65014H4.6501H4.65007H4.65004H4.65001H4.64997H4.64994H4.64991H4.64988H4.64984H4.64981H4.64978H4.64974H4.64971H4.64968H4.64964H4.64961H4.64957H4.64954H4.64951H4.64947H4.64944H4.6494H4.64937H4.64933H4.6493H4.64926H4.64923H4.64919H4.64916H4.64912H4.64908H4.64905H4.64901H4.64897H4.64894H4.6489H4.64886H4.64883H4.64879H4.64875H4.64872H4.64868H4.64864H4.6486H4.64853H4.64845H4.64838H4.6483H4.64823H4.64815H4.64808H4.648H4.64793H4.64785H4.64778H4.6477H4.64767C4.5827 5.63011 4.51785 5.63086 4.45877 5.63578C3.04636 5.57091 1.97998 4.45004 1.97998 3.07162Z" stroke="black"/>
<path d="M1.54617 11.606L1.5448 11.6051C0.831059 11.1293 0.5 10.5325 0.5 9.94538C0.5 9.35786 0.831448 8.75484 1.55097 8.2729C2.36109 7.73705 3.44914 7.45459 4.56054 7.45459C5.67259 7.45459 6.75709 7.73735 7.56012 8.2727C8.27022 8.74611 8.59937 9.34259 8.60491 9.93451C8.60415 10.5279 8.2725 11.1244 7.55824 11.6064C6.75208 12.1475 5.66501 12.4329 4.55244 12.4329C3.43965 12.4329 2.35238 12.1474 1.54617 11.606Z" stroke="black"/>
</svg>
