<svg width="14" height="12" viewBox="0 0 14 12" fill="none" xmlns="http://www.w3.org/2000/svg">
<path d="M1 5.9333C1 3.67056 1 2.53919 1.70294 1.83624C2.40589 1.1333 3.53726 1.1333 5.8 1.1333H8.2C10.4627 1.1333 11.5941 1.1333 12.297 1.83624C13 2.53919 13 3.67056 13 5.9333C13 8.19602 13 9.32744 12.297 10.0303C11.5941 10.7333 10.4627 10.7333 8.2 10.7333H5.8C3.53726 10.7333 2.40589 10.7333 1.70294 10.0303C1 9.32744 1 8.19602 1 5.9333Z" stroke="black"/>
<path d="M7.00001 4.7334V7.1334M5.96057 5.3334L8.03903 6.5334M8.03891 5.3334L5.96045 6.5334" stroke="black" stroke-linecap="round"/>
<path d="M3.8394 4.7334V7.1334M2.79994 5.3334L4.87841 6.5334M4.87826 5.3334L2.7998 6.5334" stroke="black" stroke-linecap="round"/>
<path d="M10.1607 4.7334V7.1334M9.12121 5.3334L11.1997 6.5334M11.1996 5.3334L9.12109 6.5334" stroke="black" stroke-linecap="round"/>
</svg>
