<svg width="13" height="15" viewBox="0 0 13 15" fill="none" xmlns="http://www.w3.org/2000/svg">
<path fill-rule="evenodd" clip-rule="evenodd" d="M7.90729 0.377083L11.5927 2.50486C12.4635 3.00764 13 3.93681 13 4.94236V9.19791C13 10.2035 12.4635 11.1326 11.5927 11.6354L7.90729 13.7632C7.03646 14.266 5.96354 14.266 5.09271 13.7632L1.40729 11.6354C0.536456 11.1326 0 10.2035 0 9.19791V4.94236C0 3.93681 0.536456 3.00764 1.40729 2.50486L5.09271 0.377083C5.96354 -0.125694 7.03646 -0.125694 7.90729 0.377083ZM9.79321 4.98611C9.67158 4.75737 9.38754 4.67053 9.15879 4.79215L6.4946 6.20824L3.83044 4.79215C3.60169 4.67053 3.31765 4.75737 3.19602 4.98611C3.0744 5.21487 3.16124 5.4989 3.38999 5.62053L6.0255 7.02166L6.02552 10.1969C6.02552 10.456 6.23554 10.666 6.49462 10.666C6.75369 10.666 6.96371 10.456 6.96371 10.1969L6.9637 7.02166L9.59925 5.62053C9.828 5.4989 9.91484 5.21487 9.79321 4.98611Z" fill="#FFF112"/>
</svg>
