<svg width="13" height="10" viewBox="0 0 13 10" fill="none" xmlns="http://www.w3.org/2000/svg">
<path fill-rule="evenodd" clip-rule="evenodd" d="M3.12415 7.10521H1.56208V2.93744H3.12415L11.1259 0.387708C11.6715 0.205831 12.2613 0.500709 12.4432 1.04634C12.4785 1.15252 12.4966 1.26372 12.4966 1.37565V8.66505C12.4966 9.24021 12.0304 9.70643 11.4552 9.70643C11.3433 9.70643 11.2321 9.68837 11.1259 9.65301L7.28922 8.43032C7.28427 8.58091 7.25761 8.73008 7.20986 8.87322C6.93707 9.69165 6.05242 10.134 5.23399 9.86113L4.19226 9.51388C3.55439 9.30128 3.12415 8.70436 3.12415 8.03199V7.10521ZM0.520692 2.93744H1.04138V7.10298H0.520692C0.233121 7.10298 0 6.86986 0 6.58228V3.45813C0 3.17057 0.233121 2.93744 0.520692 2.93744ZM4.16553 8.03199C4.16553 8.2561 4.30895 8.45506 4.52157 8.52597L5.56333 8.87322C5.83612 8.96414 6.13099 8.81668 6.22195 8.54389C6.23981 8.49025 6.24882 8.43412 6.24866 8.37763L6.24851 8.09864L4.16553 7.43486V8.03199Z" fill="black"/>
</svg>
