<svg width="13" height="13" viewBox="0 0 13 13" fill="none" xmlns="http://www.w3.org/2000/svg">
<path d="M10.2143 6.56836C9.90554 6.56836 9.60979 6.62082 9.33214 6.71322L8.372 4.91272C8.93193 4.4034 9.28571 3.67075 9.28571 2.85407C9.28571 1.31543 8.03864 0.0683594 6.5 0.0683594C4.96136 0.0683594 3.71429 1.31543 3.71429 2.85407C3.71429 3.67075 4.06807 4.4034 4.628 4.91272L3.66786 6.71322C3.39021 6.62082 3.09446 6.56836 2.78571 6.56836C1.24707 6.56836 0 7.81543 0 9.35407C0 10.8927 1.24707 12.1398 2.78571 12.1398C4.16557 12.1398 5.30818 11.1355 5.52964 9.81836H7.47036C7.69182 11.1355 8.83443 12.1398 10.2143 12.1398C11.7529 12.1398 13 10.8927 13 9.35407C13 7.81543 11.7529 6.56836 10.2143 6.56836ZM5.41079 5.41832C5.74554 5.56086 6.11325 5.63979 6.5 5.63979C6.88675 5.63979 7.25446 5.56086 7.58921 5.41832L8.51361 7.15104C7.97132 7.57029 7.58921 8.18454 7.47036 8.88932H5.52964C5.41125 8.18454 5.02914 7.57029 4.48639 7.15104L5.41079 5.41832Z" fill="#111918"/>
</svg>
