<svg width="13" height="10" viewBox="0 0 13 10" fill="none" xmlns="http://www.w3.org/2000/svg">
<path d="M12.9996 4.4693L13 7.90569C13 8.85736 12.2571 9.63551 11.3196 9.69184L11.2106 9.69511H1.78989C0.838221 9.69511 0.0600696 8.9522 0.00373418 8.0147L0.000468363 7.90569L0 4.4693H12.9996ZM10.569 6.75018H8.94226L8.87604 6.75464C8.63784 6.78695 8.45424 6.99114 8.45424 7.23821C8.45424 7.48527 8.63784 7.68946 8.87604 7.72178L8.94226 7.72623H10.569L10.6352 7.72178C10.8734 7.68946 11.057 7.48527 11.057 7.23821C11.057 6.99114 10.8734 6.78695 10.6352 6.75464L10.569 6.75018ZM11.2106 0.582031C12.1622 0.582031 12.9404 1.32494 12.9967 2.26244L13 2.37145L12.9996 3.49325H0L0.000468363 2.37145C0.000468363 1.41978 0.743373 0.641632 1.68088 0.585297L1.78989 0.582031H11.2106Z" fill="#FFF112"/>
</svg>
