<svg width="13" height="14" viewBox="0 0 13 14" fill="none" xmlns="http://www.w3.org/2000/svg">
<path fill-rule="evenodd" clip-rule="evenodd" d="M9.73085 2.71788C9.48948 1.54212 8.594 0.574933 7.38544 0.255264C6.80535 0.101842 6.19464 0.101842 5.61455 0.255264C4.40596 0.574926 3.51047 1.54212 3.26915 2.71787C1.97846 3.05733 0.932077 3.98865 0.454834 5.21618C1.28734 5.52298 2.21995 5.7559 3.20441 5.91486V5.69126C3.20441 5.40743 3.43737 5.17741 3.72476 5.17741C4.01215 5.17741 4.24512 5.40743 4.24512 5.69126V6.05353C5.72354 6.21046 7.27645 6.21046 8.75484 6.05353V5.69126C8.75484 5.40743 8.98783 5.17741 9.2752 5.17741C9.56264 5.17741 9.79556 5.40743 9.79556 5.69126V5.91486C10.78 5.7559 11.7126 5.52298 12.5451 5.21618C12.0679 3.98865 11.0215 3.05733 9.73085 2.71788ZM7.11612 1.24792C6.71247 1.14115 6.28752 1.14115 5.88387 1.24792C5.21755 1.42414 4.6911 1.88995 4.42835 2.48595C5.79843 2.24248 7.20156 2.24248 8.57161 2.48595C8.30887 1.88995 7.78244 1.42414 7.11612 1.24792Z" fill="black"/>
<path d="M8.75483 7.08672V8.08916C8.75483 8.37292 8.98782 8.60295 9.27519 8.60295C9.56264 8.60295 9.79555 8.37292 9.79555 8.08916V6.9552C10.8787 6.78989 11.9089 6.54043 12.8326 6.20691C13.0877 7.36196 13.0507 8.56821 12.7257 9.70802C12.2658 11.3215 10.9219 12.5549 9.25273 12.8771C7.43476 13.228 5.56522 13.228 3.74727 12.8771C2.07807 12.5549 0.734208 11.3215 0.274262 9.70802C-0.0506652 8.56821 -0.0876501 7.36196 0.167424 6.20691C1.09107 6.54043 2.12131 6.78989 3.2044 6.9552V8.08916C3.2044 8.37292 3.43737 8.60295 3.72475 8.60295C4.01214 8.60295 4.24511 8.37292 4.24511 8.08916V7.08672C5.72707 7.23636 7.27291 7.23636 8.75483 7.08672Z" fill="black"/>
</svg>
