<svg width="13" height="14" viewBox="0 0 13 14" fill="none" xmlns="http://www.w3.org/2000/svg">
<path fill-rule="evenodd" clip-rule="evenodd" d="M9.73085 2.71806C9.48948 1.5423 8.594 0.575116 7.38544 0.255447C6.80535 0.102026 6.19464 0.102026 5.61455 0.255447C4.40596 0.575109 3.51047 1.5423 3.26915 2.71805C1.97846 3.05751 0.932077 3.98883 0.454834 5.21637C1.28734 5.52317 2.21995 5.75608 3.20441 5.91504V5.69144C3.20441 5.40761 3.43737 5.17759 3.72476 5.17759C4.01215 5.17759 4.24512 5.40761 4.24512 5.69144V6.05371C5.72354 6.21065 7.27645 6.21065 8.75484 6.05371V5.69144C8.75484 5.40761 8.98783 5.17759 9.2752 5.17759C9.56264 5.17759 9.79556 5.40761 9.79556 5.69144V5.91504C10.78 5.75608 11.7126 5.52317 12.5451 5.21637C12.0679 3.98883 11.0215 3.05751 9.73085 2.71806ZM7.11612 1.2481C6.71247 1.14134 6.28752 1.14134 5.88387 1.2481C5.21755 1.42433 4.6911 1.89013 4.42835 2.48613C5.79843 2.24267 7.20156 2.24267 8.57161 2.48613C8.30887 1.89013 7.78244 1.42433 7.11612 1.2481Z" fill="#FFF112"/>
<path d="M8.75483 7.08684V8.08928C8.75483 8.37304 8.98782 8.60307 9.27519 8.60307C9.56264 8.60307 9.79555 8.37304 9.79555 8.08928V6.95532C10.8787 6.79001 11.9089 6.54055 12.8326 6.20703C13.0877 7.36208 13.0507 8.56833 12.7257 9.70814C12.2658 11.3217 10.9219 12.555 9.25273 12.8772C7.43476 13.2281 5.56522 13.2281 3.74727 12.8772C2.07807 12.555 0.734208 11.3217 0.274262 9.70814C-0.0506652 8.56833 -0.0876501 7.36208 0.167424 6.20703C1.09107 6.54055 2.12131 6.79001 3.2044 6.95532V8.08928C3.2044 8.37304 3.43737 8.60307 3.72475 8.60307C4.01214 8.60307 4.24511 8.37304 4.24511 8.08928V7.08684C5.72707 7.23649 7.27291 7.23649 8.75483 7.08684Z" fill="#FFF112"/>
</svg>
