<svg width="13" height="14" viewBox="0 0 13 14" fill="none" xmlns="http://www.w3.org/2000/svg">
<path d="M0.771004 1.15111C0.644859 1.40257 0.582818 1.71277 0.458735 2.33319L0.0421168 4.41628C-0.221677 5.73526 0.787163 6.96584 2.13226 6.96584C3.22734 6.96584 4.14425 6.13605 4.25322 5.0464L4.3013 4.56554C4.18766 5.85364 5.20293 6.96584 6.49985 6.96584C7.80555 6.96584 8.82584 5.83845 8.69589 4.53922L8.74676 5.0464C8.85573 6.13605 9.77262 6.96584 10.8678 6.96584C12.2128 6.96584 13.2217 5.73526 12.9579 4.41628L12.5413 2.33319C12.4172 1.71279 12.3551 1.40257 12.229 1.15111C11.9632 0.62124 11.4849 0.229155 10.9132 0.0724281C10.6419 -0.00195311 10.3255 -0.00195312 9.69284 -0.00195312H8.2418H3.30714C2.67445 -0.00195312 2.3581 -0.00195311 2.08678 0.0724281C1.51508 0.229155 1.0368 0.62124 0.771004 1.15111Z" fill="black"/>
<path d="M10.8678 8.0121C11.4371 8.0121 11.9661 7.86411 12.4226 7.60721V8.36049C12.4226 10.9882 12.4226 12.302 11.6063 13.1184C10.9492 13.7755 9.9697 13.9037 8.24197 13.9287V11.496C8.24197 10.8448 8.24197 10.5192 8.10192 10.2766C8.01022 10.1178 7.87825 9.9858 7.71938 9.89411C7.47684 9.75405 7.15123 9.75405 6.50002 9.75405C5.84881 9.75405 5.5232 9.75405 5.28066 9.89411C5.12179 9.9858 4.98983 10.1178 4.8981 10.2766C4.75807 10.5192 4.75807 10.8448 4.75807 11.496V13.9287C3.03036 13.9037 2.05084 13.7755 1.39372 13.1184C0.577392 12.302 0.577393 10.9882 0.577393 8.36049V7.60721C1.03395 7.86411 1.56291 8.0121 2.13231 8.0121C2.9664 8.0121 3.73114 7.68908 4.30123 7.15639C4.87769 7.68608 5.64751 8.0121 6.49988 8.0121C7.35232 8.0121 8.12219 7.68601 8.69871 7.15625C9.26881 7.68901 10.0336 8.0121 10.8678 8.0121Z" fill="black"/>
</svg>
