<svg width="8" height="8" viewBox="0 0 8 8" fill="none" xmlns="http://www.w3.org/2000/svg">
<path d="M3.07964 1.48508L3.07963 1.48509L2.94854 1.72021C2.94854 1.72022 2.94853 1.72023 2.94853 1.72024C2.94134 1.73314 2.93425 1.74589 2.92724 1.75848C2.8046 1.97904 2.70808 2.15263 2.55313 2.27025L2.55312 2.27026C2.39676 2.38895 2.20573 2.43196 1.96722 2.48566C1.95349 2.48875 1.93959 2.49188 1.92554 2.49506L1.92553 2.49506L1.67099 2.55265C1.17056 2.66588 0.824403 2.74493 0.585991 2.83889C0.352293 2.93098 0.286755 3.01274 0.261691 3.09334L0.0231941 3.01917L0.261691 3.09334C0.235784 3.17665 0.244399 3.28815 0.383658 3.50936C0.524616 3.73327 0.761303 4.01104 1.10204 4.40947L1.10206 4.40949L1.27556 4.61241C1.27556 4.61242 1.27557 4.61243 1.27558 4.61244C1.28473 4.62314 1.29377 4.63369 1.30271 4.64412C1.46681 4.83564 1.59458 4.98475 1.65308 5.17288M3.07964 1.48508L1.41435 5.24711M3.07964 1.48508C3.33703 1.02332 3.51684 0.702091 3.67709 0.492839C3.83722 0.28375 3.93053 0.25 4.00002 0.25C4.0695 0.25 4.16281 0.283743 4.32292 0.492833C4.48316 0.702087 4.66296 1.02332 4.92036 1.48508L4.92037 1.48509L5.05145 1.72021C5.05146 1.72022 5.05146 1.72023 5.05147 1.72024C5.05866 1.73314 5.06575 1.74589 5.07275 1.75848C5.19539 1.97904 5.29191 2.15263 5.44687 2.27025L5.44687 2.27026C5.60324 2.38895 5.79429 2.43196 6.03285 2.48567C6.04658 2.48876 6.06046 2.49188 6.07451 2.49506M3.07964 1.48508L6.72444 4.61241L6.89797 4.40948L6.89798 4.40947C7.23872 4.01104 7.4754 3.73328 7.61636 3.50937C7.75561 3.28816 7.76422 3.17666 7.73831 3.09335L7.7383 3.09332C7.71325 3.01274 7.64773 2.93099 7.41403 2.83889C7.17562 2.74493 6.82945 2.66588 6.32901 2.55265L6.329 2.55265L6.07451 2.49506M1.65308 5.17288L1.41435 5.24711M1.65308 5.17288C1.65307 5.17288 1.65307 5.17287 1.65307 5.17287L1.41435 5.24711M1.65308 5.17288C1.71124 5.35993 1.69196 5.55708 1.66696 5.81273C1.6656 5.82668 1.66422 5.84081 1.66283 5.85512L1.41399 5.83101M1.41435 5.24711C1.45722 5.38496 1.44281 5.53366 1.41399 5.83101M1.41399 5.83101L1.66283 5.85512M1.41399 5.83101L1.66283 5.85512M1.66283 5.85512L1.63659 6.12587C1.58511 6.65715 1.54976 7.02831 1.56173 7.29702C1.57368 7.56531 1.63077 7.65758 1.69322 7.70498L1.56381 7.87547L1.69322 7.70498C1.75159 7.74929 1.84424 7.77773 2.08675 7.70824C2.33248 7.63783 2.65714 7.48912 3.12571 7.27337L3.12575 7.27336L3.36404 7.16368M1.66283 5.85512L3.23027 7.50046L3.46862 7.39076M3.36404 7.16368L3.46862 7.39076M3.36404 7.16368L3.3641 7.16366L3.46862 7.39076M3.36404 7.16368C3.37744 7.15751 3.39069 7.15139 3.40378 7.14535C3.62593 7.04273 3.80511 6.95996 4.00002 6.95996C4.19486 6.95996 4.37396 7.04268 4.59601 7.14523C4.60918 7.15132 4.6225 7.15747 4.63599 7.16368M3.46862 7.39076C3.73037 7.27021 3.86127 7.20996 4.00002 7.20996C4.13877 7.20996 4.26962 7.27021 4.53142 7.39076M4.53142 7.39076L4.63596 7.16367L4.63599 7.16368M4.53142 7.39076L4.63599 7.16368M4.53142 7.39076L6.33719 5.85515M4.63599 7.16368L4.87426 7.27337L4.87428 7.27337C5.34286 7.48912 5.66752 7.63783 5.91324 7.70824C6.15576 7.77773 6.2484 7.74929 6.30676 7.70499L6.30678 7.70497C6.36924 7.65757 6.42633 7.5653 6.43829 7.29702C6.45026 7.02832 6.41489 6.65716 6.36339 6.12588L6.36339 6.12584L6.33719 5.85515M6.33719 5.85515L6.58603 5.83101L6.33719 5.85509L6.33719 5.85515ZM6.33719 5.85515C6.33581 5.84089 6.33443 5.82682 6.33307 5.81292C6.30804 5.55716 6.28873 5.35994 6.34697 5.17282M6.33719 5.85515L6.58568 5.24711M6.34697 5.17282C6.34696 5.17285 6.34695 5.17289 6.34694 5.17292L6.58568 5.24711M6.34697 5.17282L6.58568 5.24711M6.34697 5.17282C6.40545 4.98472 6.53321 4.83561 6.69726 4.64414C6.70621 4.6337 6.71527 4.62313 6.72442 4.61243L6.91443 4.77491C6.72383 4.99776 6.62853 5.10921 6.58568 5.24711M6.07451 2.49506L6.12967 2.25122L6.0745 2.49506L6.07451 2.49506Z" fill="#FFF112" stroke="black" stroke-width="0.5"/>
</svg>
