<svg width="13" height="13" viewBox="0 0 13 13" fill="none" xmlns="http://www.w3.org/2000/svg">
<path fill-rule="evenodd" clip-rule="evenodd" d="M10.7917 4.84546C10.7917 2.11786 8.6738 0 6.07031 0C3.46682 0 1.34896 2.11786 1.34896 4.72135C0.564539 5.12402 0 5.86527 0 6.74479V8.09375C0 8.6304 0.213183 9.14507 0.592651 9.52454C0.972119 9.904 1.48679 10.1172 2.02344 10.1172H2.69792C2.8768 10.1172 3.04836 10.0461 3.17484 9.91964C3.30133 9.79315 3.3724 9.62159 3.3724 9.44271V5.39583C3.3724 5.21695 3.30133 5.04539 3.17484 4.9189C3.04836 4.79242 2.8768 4.72135 2.69792 4.72135C2.69792 3.82694 3.05322 2.96916 3.68567 2.33671C4.31812 1.70426 5.1759 1.34896 6.07031 1.34896C6.96473 1.34896 7.82251 1.70426 8.45496 2.33671C9.0874 2.96916 9.44271 3.82694 9.44271 4.72135C9.26382 4.72135 9.09227 4.79242 8.96578 4.9189C8.83929 5.04539 8.76823 5.21695 8.76823 5.39583V9.44271C8.76823 9.62159 8.83929 9.79315 8.96578 9.91964C9.09227 10.0461 9.26382 10.1172 9.44271 10.1172V10.7917H7.69446C7.55552 10.3998 7.18455 10.1172 6.74479 10.1172H5.39583C5.12751 10.1172 4.87017 10.2238 4.68044 10.4135C4.49071 10.6032 4.38411 10.8606 4.38411 11.1289C4.38411 11.3972 4.49071 11.6546 4.68044 11.8443C4.87017 12.034 5.12751 12.1406 5.39583 12.1406H9.44271C9.80047 12.1406 10.1436 11.9985 10.3966 11.7455C10.6495 11.4925 10.7917 11.1494 10.7917 10.7917V9.99376C11.1854 9.8554 11.5265 9.59839 11.7681 9.25812C12.0097 8.91785 12.1398 8.51106 12.1406 8.09375V6.74479C12.1399 6.32755 12.0097 5.92082 11.7681 5.58064C11.5265 5.24047 11.1854 4.98361 10.7917 4.84546Z" fill="black"/>
</svg>
