<svg width="13" height="13" viewBox="0 0 13 13" fill="none" xmlns="http://www.w3.org/2000/svg">
<path fill-rule="evenodd" clip-rule="evenodd" d="M10.7917 4.98608C10.7917 2.25849 8.6738 0.140625 6.07031 0.140625C3.46682 0.140625 1.34896 2.25849 1.34896 4.86198C0.564539 5.26464 0 6.0059 0 6.88542V8.23438C0 8.77102 0.213183 9.28569 0.592651 9.66516C0.972119 10.0446 1.48679 10.2578 2.02344 10.2578H2.69792C2.8768 10.2578 3.04836 10.1868 3.17484 10.0603C3.30133 9.93377 3.3724 9.76222 3.3724 9.58333V5.53646C3.3724 5.35757 3.30133 5.18602 3.17484 5.05953C3.04836 4.93304 2.8768 4.86198 2.69792 4.86198C2.69792 3.96756 3.05322 3.10978 3.68567 2.47733C4.31812 1.84489 5.1759 1.48958 6.07031 1.48958C6.96473 1.48958 7.82251 1.84489 8.45496 2.47733C9.0874 3.10978 9.44271 3.96756 9.44271 4.86198C9.26382 4.86198 9.09227 4.93304 8.96578 5.05953C8.83929 5.18602 8.76823 5.35757 8.76823 5.53646V9.58333C8.76823 9.76222 8.83929 9.93377 8.96578 10.0603C9.09227 10.1868 9.26382 10.2578 9.44271 10.2578V10.9323H7.69446C7.55552 10.5404 7.18455 10.2578 6.74479 10.2578H5.39583C5.12751 10.2578 4.87017 10.3644 4.68044 10.5541C4.49071 10.7439 4.38411 11.0012 4.38411 11.2695C4.38411 11.5379 4.49071 11.7952 4.68044 11.9849C4.87017 12.1747 5.12751 12.2812 5.39583 12.2812H9.44271C9.80047 12.2812 10.1436 12.1391 10.3966 11.8861C10.6495 11.6332 10.7917 11.2901 10.7917 10.9323V10.1344C11.1854 9.99602 11.5265 9.73902 11.7681 9.39875C12.0097 9.05848 12.1398 8.65168 12.1406 8.23438V6.88542C12.1399 6.46818 12.0097 6.06144 11.7681 5.72127C11.5265 5.38109 11.1854 5.12423 10.7917 4.98608Z" fill="#FFF112"/>
</svg>
