<svg width="11" height="13" viewBox="0 0 11 13" fill="none" xmlns="http://www.w3.org/2000/svg">
<path d="M3.57143 4.14739H7.42857M3.57143 6.71882H7.42857M3.57143 9.29025H5.5M3.05714 12.5045H7.94286C8.66292 12.5045 9.02299 12.5045 9.298 12.3644C9.53991 12.2412 9.73662 12.0444 9.85986 11.8025C10 11.5275 10 11.1675 10 10.4474V2.99025C10 2.27018 10 1.91015 9.85986 1.63512C9.73662 1.39319 9.53991 1.1965 9.298 1.07324C9.02299 0.933105 8.66292 0.933105 7.94286 0.933105H3.05714C2.33708 0.933105 1.97704 0.933105 1.70201 1.07324C1.46009 1.1965 1.2634 1.39319 1.14014 1.63512C1 1.91015 1 2.27018 1 2.99025V10.4474C1 11.1675 1 11.5275 1.14014 11.8025C1.2634 12.0444 1.46009 12.2412 1.70201 12.3644C1.97704 12.5045 2.33707 12.5045 3.05714 12.5045Z" stroke="black" stroke-linecap="round" stroke-linejoin="round"/>
</svg>
