<svg width="19" height="19" viewBox="0 0 19 19" fill="none" xmlns="http://www.w3.org/2000/svg">
<path d="M6.63961 0C4.16828 0 2.15915 2.00913 2.15915 4.48046C2.15915 6.90462 4.05509 8.86659 6.52642 8.95149C6.60188 8.94205 6.67734 8.94205 6.73394 8.95149C6.7528 8.95149 6.76223 8.95149 6.7811 8.95149C6.79053 8.95149 6.79053 8.95149 6.79996 8.95149C9.21469 8.86659 11.1106 6.90462 11.1201 4.48046C11.1201 2.00913 9.11094 0 6.63961 0Z" fill="#FFF112"/>
<path d="M11.4322 11.4594C8.80053 9.70494 4.50876 9.70494 1.85821 11.4594C0.660278 12.2612 0 13.3459 0 14.5061C0 15.6663 0.660278 16.7416 1.84878 17.534C3.16934 18.4206 4.90493 18.8639 6.64051 18.8639C8.37607 18.8639 10.1117 18.4206 11.4322 17.534C12.6207 16.7322 13.281 15.6569 13.281 14.4872C13.2716 13.327 12.6207 12.2517 11.4322 11.4594Z" fill="#FFF112"/>
<path d="M17.0054 5.03562C17.1564 6.86553 15.8547 8.46902 14.0531 8.68596C14.0436 8.68596 14.0436 8.68596 14.0342 8.68596H14.0059C13.9493 8.68596 13.8927 8.68596 13.8455 8.70483C12.9306 8.75199 12.0911 8.45958 11.4591 7.92193C12.4307 7.05418 12.9872 5.75249 12.874 4.33761C12.808 3.57357 12.5438 2.87556 12.1477 2.28131C12.5061 2.10209 12.9212 1.9889 13.3456 1.95117C15.1944 1.79082 16.8451 3.16797 17.0054 5.03562Z" fill="#FFF112"/>
<path d="M18.8909 13.7616C18.8155 14.6766 18.2306 15.4689 17.2497 16.0066C16.3064 16.5253 15.1179 16.7706 13.9388 16.7423C14.618 16.1292 15.0141 15.3651 15.0896 14.5539C15.1839 13.3843 14.6274 12.2618 13.5144 11.3657C12.8824 10.8658 12.1466 10.4696 11.3449 10.1772C13.4295 9.57355 16.0517 9.97915 17.6647 11.2808C18.5325 11.9789 18.9758 12.8561 18.8909 13.7616Z" fill="#FFF112"/>
</svg>
