<svg width="82" height="103" viewBox="0 0 82 103" fill="none" xmlns="http://www.w3.org/2000/svg">
<path opacity="0.5" fill-rule="evenodd" clip-rule="evenodd" d="M64.0879 26.0745C64.0879 42.5287 54.1867 56.65 41.0022 56.65C27.8075 56.65 17.9166 42.5287 17.9166 26.0693C17.9166 9.6202 26.4326 0 41.0022 0C55.5718 0 64.0879 9.61505 64.0879 26.0745ZM0.484314 93.4313C2.45942 95.79 10.9652 103 41.0022 103C71.0392 103 79.5399 95.79 81.5201 93.4364C81.7038 93.2102 81.8395 92.9488 81.9189 92.668C81.9983 92.3873 82.0197 92.0932 81.9818 91.8039C81.5304 87.2616 77.457 66.95 41.0022 66.95C4.54739 66.95 0.474054 87.2616 0.0174706 91.8039C-0.0196823 92.0936 0.00256435 92.3879 0.0828465 92.6686C0.163129 92.9494 0.299751 93.2055 0.484314 93.4313Z" fill="#8E8E8E"/>
</svg>
