<svg width="15" height="14" viewBox="0 0 15 14" fill="none" xmlns="http://www.w3.org/2000/svg">
<path d="M4.92664 0C3.0929 0 1.60211 1.49079 1.60211 3.32453C1.60211 5.12328 3.00891 6.57907 4.84266 6.64207C4.89865 6.63507 4.95464 6.63507 4.99663 6.64207C5.01063 6.64207 5.01763 6.64207 5.03163 6.64207C5.03863 6.64207 5.03863 6.64207 5.04563 6.64207C6.83738 6.57907 8.24418 5.12328 8.25118 3.32453C8.25118 1.49079 6.76039 0 4.92664 0Z" fill="black"/>
<path d="M8.48278 8.50371C6.53005 7.20189 3.34553 7.20189 1.37881 8.50371C0.489931 9.09862 0 9.90351 0 10.7644C0 11.6253 0.489931 12.4232 1.37181 13.0111C2.35167 13.669 3.63949 13.9979 4.92731 13.9979C6.2151 13.9979 7.50292 13.669 8.48278 13.0111C9.36465 12.4162 9.85458 11.6183 9.85458 10.7504C9.84759 9.88951 9.36465 9.09162 8.48278 8.50371Z" fill="black"/>
<path d="M12.6182 3.7356C12.7302 5.09341 11.7643 6.28321 10.4275 6.44418C10.4205 6.44418 10.4205 6.44418 10.4135 6.44418H10.3925C10.3505 6.44418 10.3085 6.44418 10.2735 6.45818C9.59459 6.49318 8.97168 6.27621 8.50275 5.87726C9.22365 5.23339 9.63659 4.26752 9.5526 3.21767C9.50361 2.65075 9.30763 2.13282 9.01368 1.69189C9.27964 1.5589 9.58759 1.47492 9.90255 1.44692C11.2744 1.32794 12.4992 2.34979 12.6182 3.7356Z" fill="black"/>
<path d="M14.0172 10.2125C13.9612 10.8914 13.5272 11.4793 12.7994 11.8782C12.0995 12.2632 11.2176 12.4452 10.3427 12.4242C10.8466 11.9692 11.1406 11.4023 11.1966 10.8004C11.2666 9.93252 10.8536 9.09964 10.0277 8.43473C9.55881 8.06379 9.01289 7.76983 8.41797 7.55286C9.96475 7.10492 11.9105 7.40588 13.1073 8.37174C13.7512 8.88967 14.0802 9.54058 14.0172 10.2125Z" fill="black"/>
</svg>
