<svg width="15" height="14" viewBox="0 0 15 14" fill="none" xmlns="http://www.w3.org/2000/svg">
<path d="M4.92664 0C3.0929 0 1.60211 1.49079 1.60211 3.32453C1.60211 5.12328 3.00891 6.57907 4.84266 6.64207C4.89865 6.63507 4.95464 6.63507 4.99663 6.64207C5.01063 6.64207 5.01763 6.64207 5.03163 6.64207C5.03863 6.64207 5.03863 6.64207 5.04563 6.64207C6.83738 6.57907 8.24418 5.12328 8.25118 3.32453C8.25118 1.49079 6.76039 0 4.92664 0Z" fill="#FFF112"/>
<path d="M8.48278 8.50273C6.53005 7.20091 3.34553 7.20091 1.37881 8.50273C0.489931 9.09765 0 9.90253 0 10.7634C0 11.6243 0.489931 12.4222 1.37181 13.0101C2.35167 13.668 3.63949 13.997 4.92731 13.997C6.2151 13.997 7.50292 13.668 8.48278 13.0101C9.36465 12.4152 9.85458 11.6173 9.85458 10.7494C9.84759 9.88853 9.36465 9.09065 8.48278 8.50273Z" fill="#FFF112"/>
<path d="M12.6182 3.73657C12.7302 5.09438 11.7643 6.28418 10.4275 6.44516C10.4205 6.44516 10.4205 6.44516 10.4135 6.44516H10.3925C10.3505 6.44516 10.3085 6.44516 10.2735 6.45916C9.59459 6.49415 8.97168 6.27718 8.50275 5.87824C9.22365 5.23436 9.63659 4.2685 9.5526 3.21865C9.50361 2.65173 9.30763 2.1338 9.01368 1.69286C9.27964 1.55988 9.58759 1.47589 9.90255 1.4479C11.2744 1.32891 12.4992 2.35077 12.6182 3.73657Z" fill="#FFF112"/>
<path d="M14.0172 10.2115C13.9612 10.8904 13.5272 11.4783 12.7994 11.8773C12.0995 12.2622 11.2176 12.4442 10.3427 12.4232C10.8466 11.9683 11.1406 11.4013 11.1966 10.7994C11.2666 9.93155 10.8536 9.09866 10.0277 8.43376C9.55881 8.06281 9.01289 7.76885 8.41797 7.55188C9.96475 7.10394 11.9105 7.4049 13.1073 8.37077C13.7512 8.88869 14.0802 9.5396 14.0172 10.2115Z" fill="#FFF112"/>
</svg>
