<svg width="19" height="19" viewBox="0 0 19 19" fill="none" xmlns="http://www.w3.org/2000/svg">
<path fill-rule="evenodd" clip-rule="evenodd" d="M12.9312 1.61047C13.2996 1.24204 13.2996 0.64473 12.9312 0.276309C12.5627 -0.0921029 11.9655 -0.0921029 11.597 0.276309L8.80926 3.06409C8.41738 3.45591 8.41738 4.09118 8.80926 4.483L11.597 7.27079C11.9655 7.63917 12.5627 7.63917 12.9312 7.27079C13.2996 6.90237 13.2996 6.30505 12.9312 5.93663L11.7464 4.75186C11.9917 4.76572 12.2125 4.78509 12.4137 4.81214C13.0798 4.90169 13.3883 5.05959 13.5983 5.26956C13.8082 5.47953 13.9661 5.78804 14.0556 6.45412C14.1488 7.14734 14.1509 8.07304 14.1509 9.43387V11.4395C12.5233 11.8585 11.3207 13.3359 11.3207 15.0942C11.3207 17.1782 13.0102 18.8677 15.0943 18.8677C17.1783 18.8677 18.8678 17.1782 18.8678 15.0942C18.8678 13.3359 17.6652 11.8585 16.0377 11.4395V9.36727C16.0377 8.08983 16.0377 7.03643 15.9256 6.20271C15.808 5.32741 15.5514 4.55437 14.9324 3.93541C14.3135 3.31644 13.5403 3.05988 12.6651 2.94219C12.3657 2.90195 12.0381 2.87616 11.682 2.85963L12.9312 1.61047Z" fill="#FFF112"/>
<path fill-rule="evenodd" clip-rule="evenodd" d="M4.71694 7.42821C6.3445 7.00931 7.5471 5.53187 7.5471 3.77355C7.5471 1.68947 5.85762 0 3.77355 0C1.68947 0 0 1.68947 0 3.77355C0 5.53187 1.2026 7.00931 2.83016 7.42821V11.4395C1.2026 11.8585 0 13.3359 0 15.0942C0 17.1782 1.68947 18.8677 3.77355 18.8677C5.85762 18.8677 7.5471 17.1782 7.5471 15.0942C7.5471 13.3359 6.3445 11.8585 4.71694 11.4395V7.42821Z" fill="#FFF112"/>
</svg>
