<svg width="14" height="14" viewBox="0 0 14 14" fill="none" xmlns="http://www.w3.org/2000/svg">
<path fill-rule="evenodd" clip-rule="evenodd" d="M9.59501 1.19302C9.86836 0.919652 9.86836 0.476441 9.59501 0.20307C9.32159 -0.0702941 8.87842 -0.0702941 8.605 0.20307L6.53651 2.27163C6.24573 2.56236 6.24573 3.03373 6.53651 3.32447L8.605 5.39302C8.87842 5.66637 9.32159 5.66637 9.59501 5.39302C9.86836 5.11965 9.86836 4.67644 9.59501 4.40307L8.71588 3.52396C8.89788 3.53424 9.06175 3.54861 9.21099 3.56869C9.70526 3.63513 9.93417 3.7523 10.09 3.9081C10.2457 4.0639 10.3629 4.29281 10.4293 4.78705C10.4985 5.30142 10.5 5.98829 10.5 6.99804V8.48624C9.29233 8.79711 8.40004 9.89338 8.40004 11.198C8.40004 12.7444 9.6536 13.998 11.2 13.998C12.7464 13.998 14 12.7444 14 11.198C14 9.89338 13.1077 8.79711 11.9 8.48624V6.94862C11.9 6.00075 11.9 5.21913 11.8169 4.6005C11.7296 3.95102 11.5392 3.37742 11.0799 2.91814C10.6207 2.45887 10.047 2.2685 9.39754 2.18117C9.17543 2.15132 8.93232 2.13218 8.66807 2.11991L9.59501 1.19302Z" fill="black"/>
<path fill-rule="evenodd" clip-rule="evenodd" d="M3.5 5.50983C4.70766 5.199 5.6 4.10273 5.6 2.79805C5.6 1.25165 4.3464 -0.00195312 2.8 -0.00195312C1.2536 -0.00195312 0 1.25165 0 2.79805C0 4.10273 0.892339 5.199 2.1 5.50983V8.48624C0.892339 8.79711 0 9.89338 0 11.198C0 12.7444 1.2536 13.998 2.8 13.998C4.3464 13.998 5.6 12.7444 5.6 11.198C5.6 9.89338 4.70766 8.79711 3.5 8.48624V5.50983Z" fill="black"/>
</svg>
