<svg width="17" height="16" viewBox="0 0 17 16" fill="none" xmlns="http://www.w3.org/2000/svg">
<path d="M7.4538 0.680361L7.45393 0.680252C7.83143 0.357461 8.47954 0.354373 8.86874 0.680943L10.1085 1.74807C10.1087 1.74825 10.1089 1.74843 10.1091 1.7486C10.2777 1.89454 10.4967 2.00986 10.7078 2.08874C10.9192 2.16772 11.1612 2.22454 11.3858 2.22454H12.723C13.3153 2.22454 13.8039 2.71315 13.8039 3.30551V4.64265C13.8039 4.86395 13.861 5.10594 13.9395 5.31697C14.0178 5.52786 14.133 5.74976 14.28 5.91947C14.2801 5.91964 14.2803 5.91981 14.2804 5.91998L15.3482 7.16055C15.3483 7.1607 15.3485 7.16084 15.3486 7.16098C15.671 7.53856 15.674 8.18634 15.3475 8.57539L14.2804 9.81512C14.2802 9.81532 14.2801 9.81551 14.2799 9.81571C14.1339 9.98431 14.0186 10.2033 13.9397 10.4144C13.8607 10.6258 13.8039 10.8678 13.8039 11.0924V12.4296C13.8039 13.0219 13.3153 13.5106 12.723 13.5106H11.3858C11.1645 13.5106 10.9225 13.5677 10.7115 13.6461C10.5006 13.7244 10.2788 13.8396 10.1091 13.9865C10.1089 13.9867 10.1087 13.9869 10.1085 13.987L8.86794 15.0548C8.86777 15.055 8.86761 15.0551 8.86745 15.0553C8.48987 15.3776 7.84214 15.3806 7.45311 15.0541L6.21334 13.987C6.21316 13.9869 6.21298 13.9867 6.21281 13.9866C6.0442 13.8406 5.82517 13.7252 5.61402 13.6464C5.40263 13.5674 5.16066 13.5106 4.93602 13.5106H3.57527C2.98292 13.5106 2.4943 13.0219 2.4943 12.4296V11.0846C2.4943 10.863 2.43705 10.623 2.35995 10.4147C2.28263 10.2058 2.17049 9.98874 2.03118 9.82157L2.03119 9.82156L2.02859 9.81849L0.968133 8.56951C0.967923 8.56926 0.967714 8.56902 0.967505 8.56877C0.648799 8.18877 0.648809 7.54629 0.967537 7.16632C0.967735 7.16608 0.967934 7.16585 0.968133 7.16561L2.02859 5.91661L2.02861 5.91662L2.03118 5.91353C2.17049 5.74636 2.28263 5.52928 2.35995 5.3204C2.43705 5.11212 2.4943 4.87211 2.4943 4.65052V3.29764C2.4943 2.70529 2.98292 2.21667 3.57527 2.21667H4.93602C5.15732 2.21667 5.3993 2.15957 5.61034 2.08115C5.8209 2.00291 6.04244 1.88793 6.21205 1.74132L7.4538 0.680361Z" fill="#FFF112" stroke="black" stroke-width="0.874172"/>
<path d="M7.20105 10.3533C7.04374 10.3533 6.89429 10.2903 6.78417 10.1802L4.88074 8.27675C4.65264 8.04865 4.65264 7.6711 4.88074 7.443C5.10885 7.2149 5.48639 7.2149 5.7145 7.443L7.20105 8.92959L10.5832 5.54742C10.8113 5.31932 11.1889 5.31932 11.417 5.54742C11.6451 5.77552 11.6451 6.15307 11.417 6.38115L7.61792 10.1802C7.50781 10.2903 7.35836 10.3533 7.20105 10.3533Z" fill="black"/>
</svg>
