<svg width="22" height="18" viewBox="0 0 22 18" fill="none" xmlns="http://www.w3.org/2000/svg">
<path d="M5 5H9" stroke="black" stroke-width="1.36364" stroke-linecap="round" stroke-linejoin="round"/>
<path d="M19.8333 6H17.2308C15.4465 6 14 7.3431 14 9C14 10.6569 15.4465 12 17.2308 12H19.8333C19.9167 12 19.9583 12 19.9935 11.9979C20.5328 11.965 20.9623 11.5662 20.9977 11.0654C21 11.0327 21 10.994 21 10.9167V7.0833C21 7.006 21 6.96726 20.9977 6.9346C20.9623 6.43384 20.5328 6.03496 19.9935 6.00214C19.9583 6 19.9167 6 19.8333 6Z" stroke="black" stroke-width="1.36364"/>
<path d="M19.965 6C19.8873 4.1277 19.6366 2.97975 18.8284 2.17157C17.6569 1 15.7712 1 12 1H9C5.22876 1 3.34315 1 2.17157 2.17157C1 3.34315 1 5.22876 1 9C1 12.7712 1 14.6569 2.17157 15.8284C3.34315 17 5.22876 17 9 17H12C15.7712 17 17.6569 17 18.8284 15.8284C19.6366 15.0203 19.8873 13.8723 19.965 12" stroke="black" stroke-width="1.36364"/>
<path d="M16.9912 8.99988H17.0019" stroke="black" stroke-width="1.36364" stroke-linecap="round" stroke-linejoin="round"/>
</svg>
