<svg width="57" height="13" viewBox="0 0 57 13" fill="none" xmlns="http://www.w3.org/2000/svg">
<path d="M13 6.05409V7.39308C13 7.75058 12.714 8.04307 12.35 8.05607H11.0761C10.3741 8.05607 9.73057 7.54258 9.67207 6.84059C9.63307 6.43109 9.78907 6.04759 10.0621 5.7811C10.3026 5.5341 10.6341 5.39111 10.9981 5.39111H12.35C12.714 5.40411 13 5.6966 13 6.05409Z" fill="#FFF112"/>
<path d="M12.0054 9.03164H11.0759C9.8409 9.03164 8.80091 8.10215 8.69692 6.91916C8.63842 6.24317 8.88541 5.56718 9.37941 5.08618C9.7954 4.65718 10.3739 4.41669 10.9979 4.41669H12.0054C12.1939 4.41669 12.3499 4.26069 12.3304 4.07219C12.1874 2.49271 11.1409 1.41372 9.58741 1.23172C9.43141 1.20572 9.26891 1.19922 9.09991 1.19922H3.24997C3.06797 1.19922 2.89247 1.21222 2.72347 1.23822C1.06599 1.44622 0 2.6812 0 4.44919V8.99914C0 10.7931 1.45599 12.2491 3.24997 12.2491H9.09991C10.9199 12.2491 12.1744 11.1116 12.3304 9.37614C12.3499 9.18764 12.1939 9.03164 12.0054 9.03164ZM7.14993 5.26168H3.24997C2.98347 5.26168 2.76247 5.04068 2.76247 4.77418C2.76247 4.50769 2.98347 4.28669 3.24997 4.28669H7.14993C7.41643 4.28669 7.63743 4.50769 7.63743 4.77418C7.63743 5.04068 7.41643 5.26168 7.14993 5.26168Z" fill="#FFF112"/>
<path d="M32.76 1.90902L30.288 10.249H28.74L26.988 3.93702L25.128 10.249L23.592 10.261L21.228 1.90902H22.68L24.408 8.70102L26.28 1.90902H27.816L29.556 8.66502L31.296 1.90902H32.76ZM32.9523 6.91302C32.9523 6.24902 33.0883 5.66102 33.3603 5.14902C33.6403 4.63702 34.0163 4.24102 34.4883 3.96102C34.9683 3.67302 35.4963 3.52902 36.0723 3.52902C36.5923 3.52902 37.0443 3.63302 37.4283 3.84102C37.8203 4.04102 38.1323 4.29302 38.3643 4.59702V3.63702H39.7443V10.249H38.3643V9.26502C38.1323 9.57702 37.8163 9.83702 37.4163 10.045C37.0163 10.253 36.5603 10.357 36.0483 10.357C35.4803 10.357 34.9603 10.213 34.4883 9.92502C34.0163 9.62902 33.6403 9.22102 33.3603 8.70102C33.0883 8.17302 32.9523 7.57702 32.9523 6.91302ZM38.3643 6.93702C38.3643 6.48102 38.2683 6.08502 38.0763 5.74902C37.8923 5.41302 37.6483 5.15702 37.3443 4.98102C37.0403 4.80502 36.7123 4.71702 36.3603 4.71702C36.0083 4.71702 35.6803 4.80502 35.3763 4.98102C35.0723 5.14902 34.8243 5.40102 34.6323 5.73702C34.4483 6.06502 34.3563 6.45702 34.3563 6.91302C34.3563 7.36902 34.4483 7.76902 34.6323 8.11302C34.8243 8.45702 35.0723 8.72102 35.3763 8.90502C35.6883 9.08102 36.0163 9.16902 36.3603 9.16902C36.7123 9.16902 37.0403 9.08102 37.3443 8.90502C37.6483 8.72902 37.8923 8.47302 38.0763 8.13702C38.2683 7.79302 38.3643 7.39302 38.3643 6.93702ZM42.4291 1.36902V10.249H41.0611V1.36902H42.4291ZM45.1132 1.36902V10.249H43.7452V1.36902H45.1132ZM52.4892 6.78102C52.4892 7.02902 52.4732 7.25302 52.4412 7.45302H47.3892C47.4292 7.98102 47.6252 8.40502 47.9772 8.72502C48.3292 9.04502 48.7612 9.20502 49.2732 9.20502C50.0092 9.20502 50.5292 8.89702 50.8332 8.28102H52.3092C52.1092 8.88902 51.7452 9.38902 51.2172 9.78102C50.6972 10.165 50.0492 10.357 49.2732 10.357C48.6412 10.357 48.0732 10.217 47.5692 9.93702C47.0732 9.64902 46.6812 9.24902 46.3932 8.73702C46.1132 8.21702 45.9732 7.61702 45.9732 6.93702C45.9732 6.25702 46.1092 5.66102 46.3812 5.14902C46.6612 4.62902 47.0492 4.22902 47.5452 3.94902C48.0492 3.66902 48.6252 3.52902 49.2732 3.52902C49.8972 3.52902 50.4532 3.66502 50.9412 3.93702C51.4292 4.20902 51.8092 4.59302 52.0812 5.08902C52.3532 5.57702 52.4892 6.14102 52.4892 6.78102ZM51.0612 6.34902C51.0532 5.84502 50.8732 5.44102 50.5212 5.13702C50.1692 4.83302 49.7332 4.68102 49.2132 4.68102C48.7412 4.68102 48.3372 4.83302 48.0012 5.13702C47.6652 5.43302 47.4652 5.83702 47.4012 6.34902H51.0612ZM54.9515 4.75302V8.41302C54.9515 8.66102 55.0075 8.84102 55.1195 8.95302C55.2395 9.05702 55.4395 9.10902 55.7195 9.10902H56.5595V10.249H55.4795C54.8635 10.249 54.3915 10.105 54.0635 9.81702C53.7355 9.52902 53.5715 9.06102 53.5715 8.41302V4.75302H52.7915V3.63702H53.5715V1.99302H54.9515V3.63702H56.5595V4.75302H54.9515Z" fill="white"/>
</svg>
