<svg width="13" height="12" viewBox="0 0 13 12" fill="none" xmlns="http://www.w3.org/2000/svg">
<path d="M13 5.05385V6.39284C13 6.75033 12.714 7.04283 12.35 7.05583H11.0761C10.3741 7.05583 9.73057 6.54234 9.67207 5.84034C9.63307 5.43085 9.78907 5.04735 10.0621 4.78085C10.3026 4.53385 10.6341 4.39087 10.9981 4.39087H12.35C12.714 4.40387 13 4.69635 13 5.05385Z" fill="black"/>
<path d="M12.0054 8.03128H11.0759C9.8409 8.03128 8.80091 7.10179 8.69692 5.9188C8.63842 5.2428 8.88541 4.56681 9.37941 4.08581C9.7954 3.65682 10.3739 3.41632 10.9979 3.41632H12.0054C12.1939 3.41632 12.3499 3.26032 12.3304 3.07182C12.1874 1.49234 11.1409 0.41335 9.58741 0.231352C9.43141 0.205352 9.26891 0.198853 9.09991 0.198853H3.24997C3.06797 0.198853 2.89247 0.211852 2.72347 0.237852C1.06599 0.44585 0 1.68084 0 3.44882V7.99878C0 9.79276 1.45599 11.2487 3.24997 11.2487H9.09991C10.9199 11.2487 12.1744 10.1113 12.3304 8.37577C12.3499 8.18727 12.1939 8.03128 12.0054 8.03128ZM7.14993 4.26131H3.24997C2.98347 4.26131 2.76247 4.04032 2.76247 3.77382C2.76247 3.50732 2.98347 3.28632 3.24997 3.28632H7.14993C7.41643 3.28632 7.63743 3.50732 7.63743 3.77382C7.63743 4.04032 7.41643 4.26131 7.14993 4.26131Z" fill="black"/>
</svg>
